<?xml version="1.0" standalone="no"?>
<!DOCTYPE svg PUBLIC "-//W3C//DTD SVG 1.1//EN" "http://www.w3.org/Graphics/SVG/1.1/DTD/svg11.dtd" >
<svg>
<metadata>
Created by FontForge 20120731 at Sat Nov 17 18:06:51 2018
 By www-data
Copyright (c) 2012 by Henrik Kubel, A2/SW/HK + A2-TYPE. All rights reserved.
</metadata>
<defs>
<font id="WEBRegular-Regular" horiz-adv-x="1005" >
  <font-face 
    font-family="WEB Regular Regular"
    font-weight="500"
    font-stretch="normal"
    units-per-em="2048"
    panose-1="2 0 5 3 4 0 0 2 0 3"
    ascent="1536"
    descent="-512"
    x-height="903"
    cap-height="1434"
    bbox="-31 -557 2040 1948"
    underline-thickness="104"
    underline-position="-723"
    unicode-range="U+000D-FB04"
  />
<missing-glyph horiz-adv-x="748" 
d="M68 0v1365h544v-1365h-544zM136 68h408v1229h-408v-1229z" />
    <glyph glyph-name=".notdef" horiz-adv-x="748" 
d="M68 0v1365h544v-1365h-544zM136 68h408v1229h-408v-1229z" />
    <glyph glyph-name="glyph1" horiz-adv-x="0" 
 />
    <glyph glyph-name="glyph1" horiz-adv-x="0" 
 />
    <glyph glyph-name="uni000D" unicode="&#xd;" horiz-adv-x="512" 
 />
    <glyph glyph-name="space" unicode=" " horiz-adv-x="409" 
 />
    <glyph glyph-name="exclam" unicode="!" horiz-adv-x="514" 
d="M135 98q0 53 36 89t87 36q53 0 89 -35.5t36 -89.5q0 -51 -36 -87t-89 -36q-51 0 -87 36t-36 87zM188 1434h131l-6 -977h-118z" />
    <glyph glyph-name="quotedbl" unicode="&#x22;" horiz-adv-x="718" 
d="M141 920v514h127v-514h-127zM451 920v514h127v-514h-127z" />
    <glyph glyph-name="numbersign" unicode="#" horiz-adv-x="1089" 
d="M117 508v113h180v272h-180v111h180v299h117v-299h260v299h117v-299h182v-111h-182v-272h182v-113h-182v-297h-117v297h-260v-297h-117v297h-180zM414 621h260v272h-260v-272z" />
    <glyph glyph-name="dollar" unicode="$" horiz-adv-x="1042" 
d="M74 141l71 97q117 -113 269 -144l59 613l-55 30q-141 74 -214 159t-73 208q0 84 34 149.5t91 111.5t133 69.5t160 23.5l14 139h115l-16 -151q84 -16 154.5 -51t123.5 -76l-70 -98q-41 35 -97 65.5t-122 46.5l-55 -549l20 -10q168 -88 250 -185t82 -229q0 -70 -28.5 -138
t-83 -122.5t-135 -88.5t-185.5 -36l-16 -165h-115l16 174q-104 16 -186 60t-141 97zM258 1108q0 -72 49 -135.5t160 -120.5l20 -10l52 506q-55 -2 -105.5 -18.5t-89.5 -46.5t-62.5 -74t-23.5 -101zM526 86q68 4 122 27.5t92 60.5t58.5 83t20.5 95q0 102 -58.5 167
t-176.5 130z" />
    <glyph glyph-name="percent" unicode="%" horiz-adv-x="1449" 
d="M88 289l1198 919l66 -86l-1198 -919zM127 1155q0 61 23.5 116.5t64.5 97.5t96.5 65.5t116.5 23.5t115.5 -23.5t95.5 -65.5t64.5 -97t23.5 -117q0 -61 -23.5 -115.5t-64.5 -95.5t-95.5 -64.5t-115.5 -23.5t-116.5 23.5t-96.5 64.5t-64.5 95.5t-23.5 115.5zM242 1155
q0 -39 14 -75t40 -62.5t59.5 -41.5t72.5 -15q37 0 70.5 15t59.5 41.5t40 62.5t14 75q0 82 -54 139.5t-130 57.5q-78 0 -132 -57.5t-54 -139.5zM733 274q0 61 23.5 116.5t64.5 97.5t96.5 66t116.5 24t116.5 -24t96.5 -66t64.5 -97.5t23.5 -116.5t-23.5 -115.5t-64.5 -95
t-96 -64.5t-117 -24q-61 0 -116.5 24t-96.5 64.5t-64.5 95t-23.5 115.5zM850 274q0 -39 14.5 -74.5t39 -62t58 -42t72.5 -15.5t73 15.5t58.5 42t39 62t14.5 74.5q0 82 -53.5 139.5t-131.5 57.5t-131 -57.5t-53 -139.5z" />
    <glyph glyph-name="ampersand" unicode="&#x26;" horiz-adv-x="1306" 
d="M94 348q0 129 68.5 236.5t195.5 212.5q-82 100 -110.5 173.5t-28.5 151.5q0 74 26.5 136.5t74 106.5t112 68.5t139.5 24.5q74 0 135.5 -23.5t104.5 -65.5t66.5 -97t23.5 -119q0 -41 -11 -87t-34 -87l-115 31q16 35 25.5 69.5t9.5 63.5q0 98 -62.5 151.5t-144.5 53.5
q-96 0 -157.5 -62.5t-61.5 -161.5q0 -70 36 -140.5t116 -158.5l395 -438q55 96 94 196.5t56 170.5h141q-29 -104 -81 -225t-122 -232l275 -289v-8h-173l-178 190q-72 -96 -172 -155.5t-243 -59.5q-84 0 -157 28t-127 77t-85 117.5t-31 150.5zM227 354q0 -66 24.5 -115
t63.5 -82.5t88.5 -50t100.5 -16.5q100 0 183 51.5t140 141.5l-397 430q-104 -100 -153.5 -180t-49.5 -179z" />
    <glyph glyph-name="quotesingle" unicode="'" horiz-adv-x="409" 
d="M141 920v514h127v-514h-127z" />
    <glyph glyph-name="parenleft" unicode="(" horiz-adv-x="626" 
d="M90 573q0 129 25.5 243t73 218.5t112 202.5t143.5 197h125v-31q-158 -174 -254 -382t-96 -448q0 -119 25.5 -235.5t71.5 -226t111 -209t142 -185.5v-30h-125q-158 193 -256 411.5t-98 474.5z" />
    <glyph glyph-name="parenright" unicode=")" horiz-adv-x="626" 
d="M57 -283q78 86 143.5 185.5t111.5 209t72 226.5t26 235q0 240 -97.5 448t-255.5 382v31h125q80 -98 144.5 -196.5t111.5 -203t73 -218.5t26 -243q0 -256 -98.5 -475t-256.5 -411h-125v30z" />
    <glyph glyph-name="asterisk" unicode="*" horiz-adv-x="1044" 
d="M121 863.5q12 33.5 41 49.5q23 12 61.5 23.5t81.5 22t82 18.5t62 12l22 -43q-18 -14 -49 -41.5t-64.5 -55.5t-65.5 -52.5t-52 -34.5q-33 -16 -66 -6t-49 43q-16 31 -4 64.5zM121 1142q-12 34 4 64q16 33 49 43t66 -6q20 -10 52 -34.5t65.5 -52.5t64.5 -54.5t49 -42.5
l-22 -43q-23 4 -62 12t-82 18.5t-82 21.5t-61 24q-29 16 -41 50zM436 631q0 25 7.5 64.5t18.5 83.5t21.5 84t16.5 63h45q6 -23 16 -63t21.5 -84t18.5 -84t7 -64q0 -35 -24.5 -59.5t-59.5 -24.5q-37 0 -62.5 24.5t-25.5 59.5zM436 1374q0 35 25.5 59.5t62.5 24.5
q35 0 59.5 -24.5t24.5 -59.5q0 -25 -7 -64.5t-18.5 -83.5t-21.5 -84t-16 -63h-45q-6 23 -16.5 63t-21.5 84t-18.5 84t-7.5 64zM573 946l23 43q23 -4 62.5 -12t82.5 -19.5t82 -22.5t60 -22q29 -16 41 -50t-4 -64q-16 -33 -49 -43t-66 6q-20 10 -52 34.5t-66 52.5t-64.5 55.5
t-49.5 41.5zM573 1059q18 16 49 42.5t65 54.5t66 52.5t52 34.5q33 16 65.5 6t49.5 -43q16 -31 3.5 -64.5t-40.5 -49.5q-20 -10 -59.5 -21.5t-82.5 -23t-83 -19.5t-62 -12z" />
    <glyph glyph-name="plus" unicode="+" horiz-adv-x="983" 
d="M61 670v108h371v371h117v-371h373v-108h-373v-375h-117v375h-371z" />
    <glyph glyph-name="comma" unicode="," horiz-adv-x="501" 
d="M111 -225l94 207q-35 12 -55.5 43.5t-20.5 72.5q0 49 34 86t87 37q51 0 87 -34.5t36 -88.5q0 -20 -6.5 -41.5t-14.5 -36.5l-133 -245h-108z" />
    <glyph glyph-name="hyphen" unicode="-" horiz-adv-x="512" 
d="M41 516v105h428v-105h-428z" />
    <glyph glyph-name="period" unicode="." horiz-adv-x="501" 
d="M127 98q0 53 36 89t87 36q53 0 89 -35.5t36 -89.5q0 -51 -36 -87t-89 -36q-51 0 -87 36t-36 87z" />
    <glyph glyph-name="slash" unicode="/" horiz-adv-x="765" 
d="M84 0l483 1434h117l-479 -1434h-121z" />
    <glyph glyph-name="zero" unicode="0" 
d="M94 719q0 362 97.5 550.5t310.5 188.5t310 -188.5t97 -550.5q0 -367 -97 -555.5t-310 -188.5t-310.5 188.5t-97.5 555.5zM223 719q0 -311 65.5 -473t213.5 -162q145 0 211.5 162t66.5 473t-66.5 471t-211.5 160q-147 0 -213 -160t-66 -471z" />
    <glyph glyph-name="one" unicode="1" 
d="M178 1321v113h414v-1321h280v-113h-692v113h283v1208h-285z" />
    <glyph glyph-name="two" unicode="2" 
d="M80 1102q0 82 32.5 147.5t88 111.5t129 71.5t155.5 25.5q90 0 165 -26.5t129.5 -76.5t85 -122t30.5 -160q0 -53 -12.5 -112.5t-48 -130t-97 -156.5t-159.5 -195l-336 -366h688v-113h-844v109q57 59 125 133q63 66 140 150.5t169 189.5q70 80 118 145.5t76.5 123.5
t42 112.5t13.5 107.5q0 123 -78 201t-211 78q-57 0 -107 -16.5t-88 -48.5t-60.5 -79t-22.5 -106q0 -78 43 -164l-119 -29q-23 47 -35 94.5t-12 100.5z" />
    <glyph glyph-name="three" unicode="3" 
d="M96 360v91h123l2 -78q4 -147 78.5 -218t187.5 -71q129 0 206 84t77 260q0 168 -91 244t-237 76q-63 0 -110 -7v93l422 487h-615v113h740v-127l-398 -457q90 0 166 -29.5t132.5 -84t88 -132.5t31.5 -176q0 -117 -32.5 -202t-89 -141t-131.5 -83t-157 -27q-78 0 -149.5 25
t-125.5 74t-86 120.5t-32 165.5z" />
    <glyph glyph-name="four" unicode="4" 
d="M37 453v108l508 873h200v-873h220v-108h-220v-453h-124v453h-584zM160 561h461v787h-9z" />
    <glyph glyph-name="five" unicode="5" 
d="M102 360v91h123l2 -78q4 -147 80 -218t187 -71q129 0 207.5 96.5t80.5 272.5q0 158 -71.5 254t-223.5 96q-82 0 -134 -22.5t-87 -57.5h-112v711h714v-113h-602v-469h6q39 29 102.5 47.5t125.5 18.5q102 0 179 -34t128 -95.5t77.5 -145.5t26.5 -186q0 -117 -34.5 -207
t-92 -150.5t-132 -92.5t-156.5 -32q-78 0 -150 25t-126 74t-86 120.5t-32 165.5z" />
    <glyph glyph-name="six" unicode="6" 
d="M90 449q0 137 39 268t102.5 249.5t141.5 225t153 194.5l41 48h166l-57 -62q-47 -49 -101.5 -114.5t-109.5 -142.5t-107.5 -163t-93.5 -180l6 -2q55 57 126 85t149 28t150.5 -28t128 -84t88 -142t32.5 -201q0 -102 -31.5 -186t-88 -143.5t-135.5 -91.5t-173 -32t-173 33
t-135 94.5t-87 148.5t-31 198zM215 426q0 -70 18.5 -132.5t55.5 -109.5t94 -74.5t133 -27.5q78 0 134.5 27.5t94 74.5t56 109.5t18.5 132.5q0 72 -18.5 134.5t-56 110.5t-94 75.5t-134.5 27.5q-76 0 -133 -27.5t-94 -75.5t-55.5 -110.5t-18.5 -134.5z" />
    <glyph glyph-name="seven" unicode="7" 
d="M104 1321v113h791v-109l-475 -1325h-139l493 1321h-670z" />
    <glyph glyph-name="eight" unicode="8" 
d="M66 379q0 123 69.5 218t177.5 140q-102 45 -157.5 137.5t-55.5 192.5q0 88 28 159.5t80 123t127 80t167 28.5t166.5 -28.5t127 -80t80 -123t27.5 -159.5q0 -100 -55 -192.5t-158 -137.5q109 -45 178.5 -140t69.5 -218q0 -92 -33 -167t-90 -127t-137 -81t-176 -29
q-94 0 -175 29t-138.5 81t-90 127t-32.5 167zM193 377q0 -57 19 -110.5t58 -94.5t97.5 -66.5t134.5 -25.5q78 0 135 25.5t96 66.5t58.5 94t19.5 111q0 57 -19.5 112.5t-58.5 98.5t-96 68.5t-135 25.5q-76 0 -134.5 -25.5t-97.5 -68.5t-58 -98.5t-19 -112.5zM217 1073
q0 -55 18.5 -106.5t53.5 -89t89 -61t124 -23.5q72 0 124 23.5t88 61t53 89t17 106.5t-17 106.5t-53 89.5t-88.5 61.5t-123.5 23.5q-70 0 -124 -23.5t-89 -61.5t-53.5 -89.5t-18.5 -106.5z" />
    <glyph glyph-name="nine" unicode="9" 
d="M61 1006q0 102 32 186t89.5 143.5t135 91t171.5 31.5t173 -32.5t135.5 -94t87 -148.5t30.5 -198q0 -137 -38.5 -268t-102 -250t-140.5 -225.5t-155 -194.5l-41 -47h-166l58 61q47 49 101 115t109.5 142.5t107.5 162.5t93 181l-6 2q-55 -57 -125.5 -85t-148.5 -28
t-150.5 27.5t-128 84t-88.5 142.5t-33 201zM186 1008q0 -70 18.5 -133.5t56.5 -111.5t95.5 -76t132.5 -28q78 0 134.5 28t93.5 76t55.5 111.5t18.5 133.5t-18.5 132t-55.5 109t-93.5 75t-134.5 28q-76 0 -133 -28t-95 -75t-56.5 -109.5t-18.5 -131.5z" />
    <glyph glyph-name="colon" unicode=":" horiz-adv-x="499" 
d="M127 98q0 51 36 87t87 36t87 -35.5t36 -87.5q0 -51 -36 -87t-87 -36t-87 36t-36 87zM127 780q0 53 36 88t87 35t87 -34.5t36 -88.5q0 -51 -36 -87t-87 -36t-87 36t-36 87z" />
    <glyph glyph-name="semicolon" unicode=";" horiz-adv-x="520" 
d="M125 -225l92 207q-33 12 -54.5 42.5t-21.5 71.5q0 51 35 87t86 36t86 -34.5t35 -88.5q0 -18 -5 -39.5t-13 -36.5l-134 -245h-106zM141 780q0 53 36 88t87 35t87 -34.5t36 -88.5q0 -51 -36 -87t-87 -36t-87 36t-36 87z" />
    <glyph glyph-name="less" unicode="&#x3c;" horiz-adv-x="1185" 
d="M72 737l501 494l80 -80l-364 -358h776v-111h-776l364 -358l-80 -78z" />
    <glyph glyph-name="equal" unicode="=" horiz-adv-x="983" 
d="M61 506v108h861v-108h-861zM61 834v108h861v-108h-861z" />
    <glyph glyph-name="greater" unicode="&#x3e;" horiz-adv-x="1185" 
d="M121 682v111h778l-367 358l80 80l502 -494l-502 -491l-80 78l367 358h-778z" />
    <glyph glyph-name="question" unicode="?" horiz-adv-x="948" 
d="M78 1008v20q0 211 109.5 320.5t295.5 109.5q82 0 153 -26.5t124 -76.5t83.5 -123t30.5 -165q0 -57 -17 -120.5t-59 -118t-109.5 -95.5t-166.5 -53l-10 -287h-106l-19 385h59q78 0 134.5 23.5t93.5 63.5t54 93.5t17 112.5q0 66 -20 117t-57 86t-85 53.5t-104 18.5
q-135 0 -209.5 -89.5t-64.5 -248.5h-127zM334 98q0 53 36 89t87 36q53 0 89 -35.5t36 -89.5q0 -51 -36 -87t-89 -36q-51 0 -87 36t-36 87z" />
    <glyph glyph-name="at" unicode="@" horiz-adv-x="1832" 
d="M96 453q0 182 64.5 335.5t180.5 265t275.5 175t348.5 63.5q158 0 301 -55t252.5 -156.5t174 -246t64.5 -322.5q0 -125 -26.5 -224.5t-73.5 -169t-114.5 -106.5t-147.5 -37q-88 0 -144.5 44t-64.5 108q-41 -66 -120 -109t-183 -43q-147 0 -237.5 77t-90.5 200
q0 125 82 194.5t223 69.5h217q47 0 67.5 22.5t20.5 59.5v27q0 51 -18.5 88t-50 59.5t-72.5 33.5t-86 11q-86 0 -153.5 -29.5t-125.5 -68.5l-59 94q47 35 137 75t209 40q162 0 253 -83t91 -224v-412q0 -53 21.5 -90t81.5 -37q72 0 117.5 46t74.5 113.5t40 143.5t11 135
q0 150 -53 272.5t-147.5 210t-221.5 135.5t-274 48q-145 0 -276.5 -53.5t-229.5 -149.5t-155.5 -231.5t-57.5 -298.5q0 -162 59.5 -297.5t161 -233.5t237.5 -152.5t288 -54.5q117 0 226.5 30t188.5 89h179q-111 -109 -258.5 -166t-331.5 -57q-190 0 -350 63.5t-277 175
t-182.5 266t-65.5 337.5zM686 252q0 -29 11.5 -59.5t37 -55t65.5 -40t97 -15.5q51 0 99 14.5t86 44t60.5 74.5t22.5 107v124q-16 -20 -49 -27t-67 -7h-168q-100 0 -147.5 -44t-47.5 -116z" />
    <glyph glyph-name="A" unicode="A" horiz-adv-x="1257" 
d="M55 0l494 1434h158l495 -1434h-137l-172 506h-539l-168 -506h-131zM389 616h467l-229 693h-6z" />
    <glyph glyph-name="B" unicode="B" horiz-adv-x="1101" 
d="M184 0v1434h332q104 0 183 -31t131.5 -80t78 -111.5t25.5 -128.5q0 -123 -61.5 -203.5t-153.5 -115.5v-2q129 -33 214 -129t85 -238q0 -82 -30 -153.5t-88 -126t-145 -85t-200 -30.5h-371zM311 111h230q74 0 136 18t109.5 55t74 91.5t26.5 127.5q0 76 -30 131.5t-77 92.5
t-108.5 55t-122.5 18h-238v-589zM311 811h203q121 0 205 63.5t84 192.5q0 68 -22.5 116t-62.5 78.5t-93.5 45t-112.5 14.5h-201v-510z" />
    <glyph glyph-name="C" unicode="C" horiz-adv-x="1560" 
d="M90 717q0 162 56.5 298t154.5 234.5t231 153.5t285 55q117 0 223.5 -32.5t193.5 -95t151.5 -150.5t99.5 -199h-133q-61 168 -198.5 266.5t-336.5 98.5q-133 0 -243.5 -48.5t-189.5 -132.5t-123 -198.5t-44 -249.5t44 -251t123 -200t189.5 -132t243.5 -48q199 0 336 98.5
t199 266.5h133q-35 -111 -99.5 -199t-151.5 -149.5t-193.5 -94.5t-223.5 -33q-152 0 -284 55.5t-230 154t-155.5 234.5t-57.5 298z" />
    <glyph glyph-name="D" unicode="D" horiz-adv-x="1396" 
d="M184 0v1434h365q184 0 325.5 -52.5t236.5 -146.5t143.5 -226t48.5 -292t-48.5 -292t-143.5 -226.5t-236.5 -146.5t-325.5 -52h-365zM311 111h236q141 0 257 37.5t197.5 114.5t127 190.5t45.5 263.5t-45.5 263.5t-127 189t-197.5 113.5t-257 38h-236v-1210z" />
    <glyph glyph-name="E" unicode="E" horiz-adv-x="1204" 
d="M184 0v1434h949v-119h-822v-529h529v-112h-529v-557h822v-117h-949z" />
    <glyph glyph-name="F" unicode="F" horiz-adv-x="1118" 
d="M184 0v1434h906v-119h-779v-557h570v-113h-570v-645h-127z" />
    <glyph glyph-name="G" unicode="G" horiz-adv-x="1591" 
d="M92 717q0 162 57.5 298t157 234.5t232.5 153.5t284 55q117 0 224.5 -32.5t195.5 -95t153.5 -150.5t100.5 -199h-133q-61 168 -201.5 266.5t-339.5 98.5q-133 0 -244.5 -48.5t-191.5 -132.5t-124 -198.5t-44 -249.5t44 -251t124 -200t190.5 -132t241.5 -48q125 0 219.5 42
t159 104.5t98 137t35.5 140.5h-393v115h520v-625h-121v256q-18 -37 -58 -85t-104.5 -92t-154.5 -74t-209 -30q-154 0 -285 55.5t-227 154t-151.5 234.5t-55.5 298z" />
    <glyph glyph-name="H" unicode="H" horiz-adv-x="1353" 
d="M184 0v1434h127v-648h731v648h127v-1434h-127v674h-731v-674h-127z" />
    <glyph glyph-name="I" unicode="I" horiz-adv-x="495" 
d="M184 0v1434h127v-1434h-127z" />
    <glyph glyph-name="J" unicode="J" horiz-adv-x="1181" 
d="M61 455v104h127v-108q0 -76 19.5 -143.5t62.5 -117t108.5 -78t158.5 -28.5q90 0 155.5 28.5t108.5 78t63.5 117t20.5 143.5v983h127v-977q0 -100 -29 -188.5t-87 -154t-148.5 -102.5t-212.5 -37q-123 0 -212.5 37t-147.5 101.5t-86 152.5t-28 189z" />
    <glyph glyph-name="K" unicode="K" horiz-adv-x="1198" 
d="M184 0v1434h127v-625h60l661 625h164l-729 -676l715 -758h-170l-645 696h-56v-696h-127z" />
    <glyph glyph-name="L" unicode="L" horiz-adv-x="978" 
d="M184 0v1434h127v-1321h639v-113h-766z" />
    <glyph glyph-name="M" unicode="M" horiz-adv-x="1687" 
d="M184 0v1434h191l471 -1016l467 1016h190v-1434h-127v1282l-469 -1012h-133l-469 1012v-1282h-121z" />
    <glyph glyph-name="N" unicode="N" horiz-adv-x="1355" 
d="M184 0v1434h176l691 -1250v1250h120v-1434h-157l-709 1276v-1276h-121z" />
    <glyph glyph-name="O" unicode="O" horiz-adv-x="1634" 
d="M90 717q0 162 57.5 298t155.5 234.5t231.5 153.5t282.5 55q152 0 284 -55t230.5 -153.5t155.5 -234.5t57 -298t-57 -298t-155.5 -234.5t-230.5 -154t-284 -55.5q-150 0 -283 55.5t-231 154t-155.5 234.5t-57.5 298zM217 717q0 -135 44 -251t123 -200t189.5 -132
t243.5 -48t243.5 48t189.5 132t123 200t44 251t-44 250.5t-123 199.5t-189.5 132.5t-243.5 48.5t-243.5 -48.5t-189.5 -132.5t-123 -199.5t-44 -250.5z" />
    <glyph glyph-name="P" unicode="P" horiz-adv-x="1118" 
d="M184 0v1434h381q123 0 215 -34t153.5 -93.5t92.5 -138t31 -169.5q0 -90 -31 -169.5t-92.5 -140t-153.5 -96.5t-215 -36h-254v-557h-127zM311 670h269q72 0 134 21.5t110 62.5t76 103.5t28 141.5q0 80 -28 140.5t-76 100.5t-110.5 60.5t-133.5 20.5h-269v-651z" />
    <glyph glyph-name="Q" unicode="Q" horiz-adv-x="1634" 
d="M90 717q0 162 57.5 298t155.5 234.5t231.5 153.5t282.5 55q152 0 284 -55t230.5 -153.5t155.5 -234.5t57 -298q0 -111 -27.5 -210t-77.5 -183t-120 -151t-154 -112l49 -73q29 -43 69 -81t106 -38q27 0 46 1t33 1q14 2 27 4v-111q-12 -2 -31 -4q-16 -2 -36.5 -3t-47.5 -1
q-84 0 -142 32t-112 114l-75 110q-55 -16 -113.5 -26.5t-120.5 -10.5q-150 0 -283 55.5t-231 154t-155.5 234.5t-57.5 298zM217 717q0 -135 44 -251t123 -200t189.5 -132t243.5 -48q86 0 170 23l-180 272l98 68l197 -295q147 78 231 224t84 339q0 135 -44 250.5t-123 199.5
t-189.5 132.5t-243.5 48.5t-243.5 -48.5t-189.5 -132.5t-123 -199.5t-44 -250.5z" />
    <glyph glyph-name="R" unicode="R" horiz-adv-x="1193" 
d="M184 0v1434h406q227 0 353 -107.5t126 -288.5q0 -53 -15.5 -112.5t-53 -113.5t-102 -97t-163.5 -62l420 -653h-145l-398 631h-301v-631h-127zM311 743h285q160 0 252 78t92 211q0 137 -92 213t-252 76h-285v-578z" />
    <glyph glyph-name="S" unicode="S" horiz-adv-x="1021" 
d="M59 141l72 97q76 -72 166 -112t199 -40q72 0 129 22.5t97 60.5t61.5 86t21.5 97q0 55 -17.5 98.5t-52.5 81t-87 71.5t-124 71l-121 63q-141 74 -213.5 159t-72.5 208q0 84 33.5 149.5t91 111.5t134.5 69.5t161 23.5q117 0 218 -42t171 -97l-70 -98q-53 47 -140 87
t-177 40q-55 0 -108.5 -15.5t-95.5 -45.5t-66.5 -75t-24.5 -104q0 -72 49 -135.5t160 -120.5l149 -78q168 -88 250 -185t82 -229q0 -72 -28.5 -140t-86 -122.5t-140.5 -88.5t-192 -34q-143 0 -248.5 50.5t-179.5 115.5z" />
    <glyph glyph-name="T" unicode="T" horiz-adv-x="1079" 
d="M27 1317v117h1026v-117h-451v-1317h-127v1317h-448z" />
    <glyph glyph-name="U" unicode="U" horiz-adv-x="1286" 
d="M170 449v985h127v-983q0 -76 19.5 -143.5t62.5 -117t108.5 -78t157.5 -28.5q90 0 155.5 28.5t108.5 78t63.5 117t20.5 143.5v983h123v-983q0 -100 -27.5 -187.5t-86 -152t-147.5 -100.5t-212 -36t-212 36t-147.5 99.5t-86 150.5t-27.5 188z" />
    <glyph glyph-name="V" unicode="V" horiz-adv-x="1249" 
d="M51 1434h142l434 -1305h4l438 1305h129l-493 -1434h-158z" />
    <glyph glyph-name="W" unicode="W" horiz-adv-x="1918" 
d="M70 1434h135l319 -1305h4l351 1305h161l359 -1305h4l315 1305h129l-354 -1434h-182l-353 1300l-346 -1300h-184z" />
    <glyph glyph-name="X" unicode="X" horiz-adv-x="1185" 
d="M18 0l498 725l-477 709h151l406 -617l412 617h143l-483 -711l501 -723h-153l-424 631l-422 -631h-152z" />
    <glyph glyph-name="Y" unicode="Y" horiz-adv-x="1277" 
d="M20 1434h154l467 -684h2l465 684h149l-552 -795v-639h-130v635z" />
    <glyph glyph-name="Z" unicode="Z" horiz-adv-x="1169" 
d="M59 0v121l893 1196h-870v117h1018v-121l-893 -1196h893v-117h-1041z" />
    <glyph glyph-name="bracketleft" unicode="[" horiz-adv-x="669" 
d="M168 -313v1747h422v-117h-295v-1514h295v-116h-422z" />
    <glyph glyph-name="backslash" unicode="\" horiz-adv-x="763" 
d="M82 1434h115l483 -1434h-119z" />
    <glyph glyph-name="bracketright" unicode="]" horiz-adv-x="669" 
d="M80 -197h293v1512h-293v119h422v-1747h-422v116z" />
    <glyph glyph-name="asciicircum" unicode="^" horiz-adv-x="1003" 
d="M102 461l320 973h174l303 -973h-135l-254 860l-274 -860h-134z" />
    <glyph glyph-name="underscore" unicode="_" horiz-adv-x="1024" 
d="M0 -254h1024v-104h-1024v104z" />
    <glyph glyph-name="grave" unicode="`" horiz-adv-x="415" 
d="M49 1409h154l123 -326h-113z" />
    <glyph glyph-name="a" unicode="a" horiz-adv-x="940" 
d="M70 252q0 125 81.5 194.5t223.5 69.5h217q47 0 67.5 22.5t20.5 59.5v27q0 51 -18.5 88t-50 59.5t-72.5 33.5t-86 11q-86 0 -154 -29.5t-125 -68.5l-59 94q47 35 137 75t209 40q162 0 253 -83t91 -224v-621h-125v113q-39 -68 -120 -103t-163 -35q-147 0 -237 77t-90 200z
M201 252q0 -29 11 -59.5t36.5 -55t66 -40t97.5 -15.5q51 0 99 14.5t86 44t60.5 74.5t22.5 107v124q-16 -20 -49 -27t-68 -7h-168q-100 0 -147 -44t-47 -116z" />
    <glyph glyph-name="b" unicode="b" horiz-adv-x="1155" 
d="M145 0v1434h125v-707q41 86 136.5 143.5t211.5 57.5q96 0 179.5 -36t145 -99.5t96 -150.5t34.5 -191t-34.5 -191.5t-96 -150t-146 -98.5t-182.5 -36q-117 0 -210 55.5t-134 139.5v-170h-125zM264 451q0 -78 25.5 -144.5t71 -116t107.5 -78t138 -28.5t138.5 28.5t107.5 78
t69.5 116t24.5 144.5t-24.5 144.5t-69.5 115.5t-107.5 77.5t-138.5 28.5t-138 -28.5t-107.5 -77.5t-71 -116t-25.5 -144z" />
    <glyph glyph-name="c" unicode="c" horiz-adv-x="1019" 
d="M80 451q0 104 37 191t99.5 150.5t147.5 99.5t183 36q129 0 237.5 -62.5t165.5 -167.5l-106 -61q-41 82 -118 131t-179 49q-76 0 -138.5 -28.5t-107.5 -77.5t-69.5 -115.5t-24.5 -144.5t24.5 -144.5t69.5 -116t107.5 -78t138.5 -28.5q102 0 179 49t118 133l106 -61
q-57 -104 -165.5 -167t-237.5 -63q-98 0 -183 36t-147.5 98.5t-99.5 149.5t-37 192z" />
    <glyph glyph-name="d" unicode="d" horiz-adv-x="1155" 
d="M82 451q0 104 35 191t96 150.5t144.5 99.5t179.5 36q117 0 212 -57.5t136 -143.5v707h125v-1434h-125v172q-41 -86 -134.5 -141.5t-209.5 -55.5q-98 0 -182.5 36t-145.5 98.5t-96 149.5t-35 192zM209 451q0 -78 24.5 -144.5t69.5 -116t107.5 -78t138.5 -28.5t138.5 28.5
t107.5 78t70.5 116t25.5 144.5t-25.5 144.5t-70.5 115.5t-107.5 77.5t-138.5 28.5t-138.5 -28.5t-107.5 -77.5t-69.5 -115.5t-24.5 -144.5z" />
    <glyph glyph-name="e" unicode="e" horiz-adv-x="1060" 
d="M82 451q0 104 35 191t96 150.5t145 99.5t181 36q88 0 170 -32t145.5 -94.5t101 -158.5t37.5 -225v-4h-782q6 -70 31.5 -130.5t68.5 -104.5t101.5 -68.5t128.5 -24.5q92 0 165.5 41t114.5 115h146q-57 -123 -171 -195t-255 -72q-98 0 -182.5 36t-145.5 98.5t-96 149.5
t-35 192zM215 516h639q-6 61 -30.5 115.5t-65.5 96.5t-96 65.5t-123 23.5t-124.5 -22.5t-97.5 -63.5t-67.5 -95t-34.5 -120z" />
    <glyph glyph-name="f" unicode="f" horiz-adv-x="559" 
d="M41 799v104h156v324q0 63 18 104t48 65.5t66 35t72 10.5q25 0 47.5 -1t38.5 -3q20 -2 37 -4v-109q-16 2 -32 6q-14 2 -30 3t-28 1q-59 0 -85.5 -27.5t-26.5 -95.5v-309h184v-104h-184v-799h-125v799h-156z" />
    <glyph glyph-name="g" unicode="g" horiz-adv-x="1155" 
d="M82 451q0 104 35 191t96 150.5t144 99.5t180 36q117 0 212 -57.5t136 -143.5v176h125v-997q0 -55 -13.5 -103.5t-45 -84t-83 -56t-125.5 -20.5h-342v104h328q66 0 111 26.5t45 104.5v295q-41 -86 -134.5 -141.5t-209.5 -55.5q-98 0 -182.5 36t-145.5 98.5t-96 149.5
t-35 192zM207 451q0 -78 25.5 -144.5t70.5 -116t107.5 -78t138.5 -28.5t138.5 28.5t107.5 78t69.5 116t24.5 144.5t-24.5 144.5t-69.5 115.5t-107.5 77.5t-138.5 28.5t-138.5 -28.5t-107.5 -77.5t-70.5 -116t-25.5 -144z" />
    <glyph glyph-name="h" unicode="h" horiz-adv-x="1054" 
d="M145 0v1434h123v-660q61 74 143.5 114t180.5 40q160 0 244 -89t84 -239v-600h-125v594q0 111 -62.5 167t-161.5 56q-82 0 -158.5 -42t-142.5 -118v-657h-125z" />
    <glyph glyph-name="i" unicode="i" horiz-adv-x="448" 
d="M35 799v104h268v-903h-125v799h-143zM123 1231q0 45 31.5 76.5t76.5 31.5t77 -31.5t32 -76.5t-32 -77t-77 -32t-76.5 32t-31.5 77z" />
    <glyph glyph-name="j" unicode="j" horiz-adv-x="448" 
d="M-6 -254h82q47 0 74.5 16.5t27.5 69.5v967h-143v104h268v-1081q0 -55 -17.5 -90t-46 -55.5t-65.5 -27.5t-76 -7h-104v104zM123 1231q0 45 31.5 76.5t76.5 31.5t77 -31.5t32 -76.5t-32 -77t-77 -32t-76.5 32t-31.5 77z" />
    <glyph glyph-name="k" unicode="k" horiz-adv-x="950" 
d="M145 0v1434h125v-881h117l348 350h168l-416 -403l439 -500h-166l-379 444h-111v-444h-125z" />
    <glyph glyph-name="l" unicode="l" horiz-adv-x="415" 
d="M145 0v1434h125v-1434h-125z" />
    <glyph glyph-name="m" unicode="m" horiz-adv-x="1662" 
d="M145 0v903h123v-129q59 72 134 113t173 41q115 0 189 -47t106 -127q143 174 336 174q160 0 241 -89t81 -239v-600h-125v600q0 104 -58.5 160.5t-154.5 56.5q-82 0 -155.5 -43t-139.5 -121q2 -23 3 -44t1 -44v-565h-125v600q0 104 -58.5 160.5t-156.5 56.5
q-80 0 -151.5 -42t-137.5 -118v-657h-125z" />
    <glyph glyph-name="n" unicode="n" horiz-adv-x="1054" 
d="M145 0v903h123v-129q61 74 143.5 114t180.5 40q160 0 244 -89t84 -239v-600h-125v594q0 111 -62.5 167t-161.5 56q-82 0 -158.5 -42t-142.5 -118v-657h-125z" />
    <glyph glyph-name="o" unicode="o" horiz-adv-x="1095" 
d="M80 451q0 104 37 191t100.5 150.5t148.5 99.5t181 36q98 0 183 -36t148.5 -99.5t100.5 -150.5t37 -191t-37 -191.5t-100.5 -150t-148.5 -98.5t-183 -36q-96 0 -181 36t-148.5 98.5t-100.5 150t-37 191.5zM207 451q0 -78 24.5 -144.5t69.5 -116t107.5 -78t138.5 -28.5
t139.5 28.5t108.5 78t69.5 116t24.5 144.5t-24.5 144.5t-69.5 115.5t-108.5 77.5t-139.5 28.5t-138.5 -28.5t-107.5 -77.5t-69.5 -116t-24.5 -144z" />
    <glyph glyph-name="p" unicode="p" horiz-adv-x="1155" 
d="M145 -358v1261h125v-176q41 86 136.5 143.5t211.5 57.5q96 0 179.5 -36t145 -99.5t96 -150.5t34.5 -191t-34.5 -191.5t-96 -150t-146 -98.5t-182.5 -36q-117 0 -210 55.5t-134 139.5v-528h-125zM264 451q0 -78 25.5 -144.5t71 -116t107.5 -78t138 -28.5t138.5 28.5
t107.5 78t69.5 116t24.5 144.5t-24.5 144.5t-69.5 115.5t-107.5 77.5t-138.5 28.5t-138 -28.5t-107.5 -77.5t-71 -116t-25.5 -144z" />
    <glyph glyph-name="q" unicode="q" horiz-adv-x="1155" 
d="M82 451q0 104 35 191t96 150.5t144 99.5t180 36q117 0 212 -57.5t136 -143.5v176h125v-1261h-125v528q-41 -84 -134 -139.5t-210 -55.5q-98 0 -182.5 36t-145.5 98.5t-96 149.5t-35 192zM209 451q0 -78 24.5 -144.5t69.5 -116t107.5 -78t138.5 -28.5t138.5 28.5t107.5 78
t70.5 116t25.5 144.5t-25.5 144.5t-70.5 115.5t-107.5 77.5t-138.5 28.5t-138.5 -28.5t-107.5 -77.5t-69.5 -115.5t-24.5 -144.5z" />
    <glyph glyph-name="r" unicode="r" horiz-adv-x="647" 
d="M145 0v903h119v-153q39 92 115 131t158 39q16 0 32.5 -1t34.5 -4v-122h-61q-59 0 -109.5 -14.5t-87.5 -48.5t-57.5 -89t-20.5 -135v-506h-123z" />
    <glyph glyph-name="s" unicode="s" horiz-adv-x="790" 
d="M63 88l66 94q53 -45 125 -70.5t131 -25.5q92 0 145.5 45t53.5 109q0 68 -52.5 104.5t-150.5 71.5l-51 18q-104 37 -167 94.5t-63 155.5q0 55 23.5 100t65.5 77t98.5 49.5t122.5 17.5q80 0 157.5 -28t134.5 -77l-67 -94q-47 39 -111.5 64.5t-117.5 25.5
q-76 0 -126.5 -34.5t-50.5 -94.5q0 -86 133 -137l105 -39q131 -51 188.5 -113.5t57.5 -162.5q0 -43 -19.5 -90.5t-59.5 -85t-103.5 -62.5t-149.5 -25q-80 0 -168 31t-150 82z" />
    <glyph glyph-name="t" unicode="t" horiz-adv-x="589" 
d="M41 799v104h156v381h125v-381h223v-104h-223v-613q0 -63 38.5 -75.5t90.5 -12.5q23 0 39 1t30 3q14 0 25 2v-104q-18 -2 -41 -4t-46.5 -3t-51.5 -1q-35 0 -72 6t-67.5 26.5t-50 58.5t-19.5 101v615h-156z" />
    <glyph glyph-name="u" unicode="u" horiz-adv-x="1040" 
d="M133 322v581h125v-569q0 -123 75 -185.5t187 -62.5q113 0 187.5 62.5t74.5 185.5v569h125v-581q0 -72 -24.5 -134.5t-73.5 -109.5t-122 -75t-167 -28t-166.5 28t-122 75t-74 109.5t-24.5 134.5z" />
    <glyph glyph-name="v" unicode="v" horiz-adv-x="960" 
d="M59 903h142l280 -801l289 801h135l-342 -903h-168z" />
    <glyph glyph-name="w" unicode="w" horiz-adv-x="1454" 
d="M70 903h139l201 -801l243 801h148l241 -801l209 801h135l-262 -903h-170l-229 776l-231 -776h-170z" />
    <glyph glyph-name="x" unicode="x" horiz-adv-x="911" 
d="M41 0l344 446l-344 457h149l267 -366l272 366h141l-344 -452l344 -451h-151l-264 360l-265 -360h-149z" />
    <glyph glyph-name="y" unicode="y" horiz-adv-x="956" 
d="M57 903h140l282 -803l291 803h133l-403 -1063q-18 -49 -40 -86t-50.5 -61.5t-69.5 -37.5t-98 -13h-105v104h103q68 0 98.5 35t56.5 104l43 115h-45z" />
    <glyph glyph-name="z" unicode="z" horiz-adv-x="849" 
d="M78 0v104l549 693h-549v106h694v-106l-549 -693h549v-104h-694z" />
    <glyph glyph-name="braceleft" unicode="{" horiz-adv-x="735" 
d="M72 559v113h161v762h422v-119h-290v-565q0 -47 -23 -86t-72 -50q49 -10 72 -49t23 -86v-674h290v-118h-422v872h-161z" />
    <glyph glyph-name="bar" unicode="|" horiz-adv-x="456" 
d="M168 -190v1746h121v-1746h-121z" />
    <glyph glyph-name="braceright" unicode="}" horiz-adv-x="735" 
d="M80 -195h291v674q0 47 22.5 86t71.5 49q-49 10 -71.5 49t-22.5 87v565h-291v119h422v-762h162v-113h-162v-872h-422v118z" />
    <glyph glyph-name="asciitilde" unicode="~" horiz-adv-x="983" 
d="M63 604v43q0 29 7.5 61.5t27 61.5t54.5 48.5t90 19.5q37 0 105.5 -17.5t144 -39t142 -39t97.5 -17.5q51 0 64.5 18.5t17.5 69.5v23h117v-41q0 -29 -7.5 -63t-26.5 -62.5t-54 -48t-90 -19.5q-39 0 -114 18.5t-153.5 40t-146.5 39t-90 17.5q-39 0 -52.5 -24.5t-13.5 -65.5
v-23h-119z" />
    <glyph glyph-name="uni00A0" unicode="&#xa0;" horiz-adv-x="409" 
 />
    <glyph glyph-name="exclamdown" unicode="&#xa1;" horiz-adv-x="460" 
d="M109 803q0 51 35.5 87t86.5 36q53 0 89 -36t36 -87q0 -53 -35.5 -89t-89.5 -36q-51 0 -86.5 36t-35.5 89zM162 -532l6 976h119l6 -976h-131z" />
    <glyph glyph-name="cent" unicode="&#xa2;" horiz-adv-x="1042" 
d="M82 723q0 98 32.5 183t91 147.5t137.5 100.5t171 44l25 236h114l-24 -242q104 -16 190 -74.5t133 -146.5l-106 -62q-35 66 -92.5 112t-135.5 62l-73 -727h4q102 0 179 49.5t118 133.5l106 -62q-57 -104 -165.5 -166.5t-237.5 -62.5h-14l-25 -248h-115l27 264
q-74 20 -136.5 62.5t-107.5 101.5t-70.5 134t-25.5 161zM209 723q0 -123 60.5 -217t162.5 -131l72 710q-66 -8 -120 -38.5t-93 -78.5t-60.5 -110.5t-21.5 -134.5z" />
    <glyph glyph-name="sterling" unicode="&#xa3;" horiz-adv-x="1081" 
d="M104 0v117h134l15 19q15 18 33.5 52.5t33 82.5t14.5 106q0 68 -17.5 133t-42.5 137h-157v109h119q-23 66 -41.5 141.5t-18.5 146.5q0 100 32 177t87 129.5t131 80t164 27.5q86 0 159.5 -25.5t128 -75.5t84 -124t29.5 -170v-12h-131q0 141 -70.5 218t-199.5 77
q-74 0 -126 -24t-87 -64.5t-51.5 -96t-16.5 -117.5q0 -72 19.5 -144.5t44.5 -143.5h372v-109h-335q18 -61 31.5 -123.5t13.5 -124.5q0 -100 -34 -171.5t-63 -110.5h572v-117h-826z" />
    <glyph glyph-name="currency" unicode="&#xa4;" horiz-adv-x="1490" 
d="M115 174l186 176q-68 86 -97.5 182.5t-29.5 182.5t29.5 182t97.5 182l-186 176l94 97l180 -178q78 59 171 90.5t185 31.5t185.5 -31.5t171.5 -90.5l180 178l94 -97l-186 -176q68 -86 97.5 -182t29.5 -182t-30 -182.5t-97 -182.5l186 -176l-94 -96l-178 178
q-78 -59 -172 -92t-187 -33q-92 0 -186 33t-172 92l-178 -178zM311 715q0 -94 32 -177t89 -145.5t137 -98.5t176 -36t176 36t137.5 98.5t89.5 145.5t32 177t-32 177t-89.5 145.5t-137 98t-176.5 35.5q-96 0 -176 -35.5t-137 -98t-89 -145.5t-32 -177z" />
    <glyph glyph-name="yen" unicode="&#xa5;" horiz-adv-x="1202" 
d="M84 1434h152l368 -695h4l369 695h147l-280 -494h227v-109h-283l-120 -233h403v-109h-403v-489h-129v489h-412v109h412l-127 233h-285v109h233z" />
    <glyph glyph-name="brokenbar" unicode="&#xa6;" horiz-adv-x="460" 
d="M168 -190v720h125v-720h-125zM168 836v720h125v-720h-125z" />
    <glyph glyph-name="section" unicode="&#xa7;" horiz-adv-x="1105" 
d="M96 639q0 94 72 169t188 91q-98 33 -142 101.5t-44 156.5q0 68 31.5 123t88 95t133.5 61.5t167 21.5q141 0 239.5 -38t157.5 -89l-74 -96q-51 47 -140 81t-179 34q-150 0 -219.5 -56.5t-69.5 -128.5q0 -78 46 -117.5t118 -58.5l231 -61q154 -41 234 -106.5t80 -192.5
q0 -88 -65.5 -163t-198.5 -104q98 -35 144 -100t46 -153q0 -68 -31.5 -124.5t-89 -96.5t-136.5 -62.5t-173 -22.5q-141 0 -240.5 39t-156.5 88l71 99q25 -23 62 -44.5t80 -38t89 -25.5t89 -9q158 0 228.5 56.5t70.5 129.5q0 80 -54.5 118t-154.5 67l-182 51
q-70 20 -128.5 46t-100.5 61.5t-64.5 85t-22.5 112.5zM229 643q0 -82 57.5 -123t155.5 -69l154 -41q123 12 203 70.5t80 148.5q0 78 -58.5 116.5t-152.5 61.5l-156 39q-121 -8 -202 -59.5t-81 -143.5z" />
    <glyph glyph-name="dieresis" unicode="&#xa8;" horiz-adv-x="593" 
d="M31 1176q0 41 30.5 71.5t71.5 30.5t73 -30.5t32 -71.5t-32 -72t-73 -31t-71.5 31t-30.5 72zM354 1176q0 41 31 71.5t72 30.5t72.5 -30.5t31.5 -71.5t-31.5 -72t-72.5 -31t-72 31t-31 72z" />
    <glyph glyph-name="copyright" unicode="&#xa9;" horiz-adv-x="1681" 
d="M100 719q0 162 58.5 297t159 233.5t235.5 153.5t289 55t288 -55t234 -153.5t158.5 -233.5t58.5 -297t-58.5 -298t-158.5 -235.5t-234.5 -155t-287.5 -55.5q-154 0 -289 55.5t-235.5 155t-159 235.5t-58.5 298zM201 719q0 -143 48 -263t134 -208t204 -137.5t255 -49.5
t253.5 49.5t202.5 137.5t134.5 207.5t48.5 263.5q0 141 -48.5 261t-134.5 207t-202.5 136t-253.5 49t-255 -49t-204 -136t-134 -207t-48 -261zM424 717q0 94 32.5 172t90 134t135.5 88t168 32q137 0 239.5 -76t141.5 -205h-115q-29 86 -98.5 136.5t-169.5 50.5
q-70 0 -128 -25t-100 -70t-65 -105.5t-23 -131.5q0 -72 23 -133.5t65 -105.5t100 -69.5t128 -25.5q100 0 169.5 50t98.5 136h115q-39 -129 -141.5 -204.5t-239.5 -75.5q-90 0 -168 31.5t-135.5 89t-90 135.5t-32.5 172z" />
    <glyph glyph-name="ordfeminine" unicode="&#xaa;" horiz-adv-x="864" 
d="M100 885q0 104 70 163.5t190 59.5h185q41 0 57 19.5t16 50.5v22q0 82 -53 122t-139 40q-72 0 -127 -25.5t-98 -60.5l-58 80q47 39 117 70.5t174 31.5q137 0 214 -70.5t77 -189.5v-528h-107v96q-33 -59 -101 -88t-138 -29q-127 0 -203 62.5t-76 173.5zM211 885
q0 -51 42 -98.5t138 -47.5q43 0 84 12.5t73 38t51 64.5t19 90v105q-14 -16 -41.5 -22.5t-56.5 -6.5h-143q-86 0 -126 -38t-40 -97z" />
    <glyph glyph-name="guillemotleft" unicode="&#xab;" horiz-adv-x="890" 
d="M100 489l211 314h142l-211 -314l211 -313h-142zM420 489l211 314h141l-211 -314l211 -313h-141z" />
    <glyph glyph-name="logicalnot" unicode="&#xac;" horiz-adv-x="983" 
d="M57 834v108h861v-436h-117v328h-744z" />
    <glyph glyph-name="uni00AD" unicode="&#xad;" horiz-adv-x="512" 
 />
    <glyph glyph-name="registered" unicode="&#xae;" horiz-adv-x="1681" 
d="M100 719q0 162 58.5 297t159 233.5t235.5 153.5t289 55t288 -55t234 -153.5t158.5 -233.5t58.5 -297t-58.5 -298t-158.5 -235.5t-234.5 -155t-287.5 -55.5q-154 0 -289 55.5t-235.5 155t-159 235.5t-58.5 298zM201 719q0 -143 48 -263t134 -208t204 -137.5t255 -49.5
t253.5 49.5t202.5 137.5t134.5 207.5t48.5 263.5q0 141 -48.5 261t-134.5 207t-202.5 136t-253.5 49t-255 -49t-204 -136t-134 -207t-48 -261zM561 301v846h318q135 0 208.5 -63.5t73.5 -172.5q0 -31 -10 -64.5t-32.5 -64t-58.5 -56.5t-87 -40l223 -385h-119l-205 371h-206
v-371h-105zM666 762h211q78 0 128 38.5t50 110.5t-50.5 109t-127.5 37h-211v-295z" />
    <glyph glyph-name="macron" unicode="&#xaf;" horiz-adv-x="655" 
d="M63 1120v107h529v-107h-529z" />
    <glyph glyph-name="degree" unicode="&#xb0;" horiz-adv-x="808" 
d="M100 1153q0 63 25 118.5t65.5 97.5t96 65.5t119.5 23.5q63 0 118.5 -23.5t96.5 -65.5t64.5 -97t23.5 -119q0 -63 -23.5 -118.5t-64.5 -96.5t-96.5 -64.5t-118.5 -23.5t-119 23.5t-96.5 64.5t-65.5 96.5t-25 118.5zM215 1153q0 -84 56.5 -142.5t134.5 -58.5
q39 0 73.5 15.5t60 43t41 64.5t15.5 78t-15.5 78t-41 64.5t-60.5 43t-73 15.5q-78 0 -134.5 -58.5t-56.5 -142.5z" />
    <glyph glyph-name="plusminus" unicode="&#xb1;" horiz-adv-x="983" 
d="M61 0v109h861v-109h-861zM61 670v108h371v371h117v-371h373v-108h-373v-375h-117v375h-371z" />
    <glyph glyph-name="uni00B2" unicode="&#xb2;" horiz-adv-x="880" 
d="M180 1231q0 43 17.5 82t50.5 69.5t80 48t106 17.5q117 0 184.5 -66.5t67.5 -162.5q0 -35 -8 -71t-30.5 -77t-62.5 -91t-104 -114l-143 -145h364v-105h-514v103q33 31 72 69q33 33 74 75t88 91q82 88 112.5 144.5t30.5 115.5q0 53 -33.5 92.5t-99.5 39.5q-57 0 -94 -32
t-37 -87q0 -20 5 -43t20 -51l-113 -25q-16 33 -24.5 62.5t-8.5 60.5z" />
    <glyph glyph-name="uni00B3" unicode="&#xb3;" horiz-adv-x="880" 
d="M172 844v39h123v-33q0 -59 32.5 -103.5t98.5 -44.5q70 0 103.5 46.5t33.5 117.5q0 68 -41 112t-116 44q-18 0 -44 -2t-38 -6v98l215 219h-328v103h457v-113l-215 -213q100 0 166.5 -66.5t66.5 -169.5q0 -123 -68.5 -196.5t-189.5 -73.5q-117 0 -186.5 65.5t-69.5 176.5z
" />
    <glyph glyph-name="acute" unicode="&#xb4;" horiz-adv-x="415" 
d="M80 1083l123 326h153l-163 -326h-113z" />
    <glyph glyph-name="mu" unicode="&#xb5;" horiz-adv-x="1019" 
d="M164 -358v1261h125v-569q0 -123 75.5 -185.5t188.5 -62.5t186.5 62.5t73.5 185.5v569h125v-581q0 -72 -24.5 -134.5t-73.5 -109.5t-121 -75t-166 -28q-90 0 -158.5 31t-109.5 84v-448h-121z" />
    <glyph glyph-name="paragraph" unicode="&#xb6;" horiz-adv-x="1189" 
d="M68 1083q0 72 26.5 136.5t74.5 111.5t114.5 75t146.5 28h565v-1434h-133v1313h-301v-1313h-135v735q-80 0 -146.5 28t-113.5 76t-72.5 111t-25.5 133z" />
    <glyph glyph-name="periodcentered" unicode="&#xb7;" horiz-adv-x="505" 
d="M127 743q0 53 36 90t89 37t90 -36.5t37 -90.5q0 -53 -37 -89t-90 -36t-89 36t-36 89z" />
    <glyph glyph-name="cedilla" unicode="&#xb8;" horiz-adv-x="391" 
d="M80 -328l121 336h131l-144 -336h-108z" />
    <glyph glyph-name="uni00B9" unicode="&#xb9;" horiz-adv-x="880" 
d="M236 616v101h159v614h-155v103h278v-717h158v-101h-440z" />
    <glyph glyph-name="ordmasculine" unicode="&#xba;" horiz-adv-x="985" 
d="M94 1053q0 88 32 162.5t85 128t126 84t155 30.5q84 0 156.5 -30.5t125.5 -84t85 -128t32 -162.5t-32 -162t-85 -128t-126 -84t-156 -30q-82 0 -155 30t-126 84t-85 128t-32 162zM203 1053q0 -66 21.5 -123.5t59.5 -99.5t91 -65.5t117 -23.5q66 0 119 23.5t90.5 65.5
t59 99.5t21.5 123.5t-21.5 123t-59 99t-91 65.5t-118.5 23.5q-63 0 -116.5 -23.5t-91.5 -65.5t-59.5 -99.5t-21.5 -122.5z" />
    <glyph glyph-name="guillemotright" unicode="&#xbb;" horiz-adv-x="890" 
d="M119 176l211 313l-211 314h139l213 -314l-213 -313h-139zM438 176l211 313l-211 314h140l213 -314l-213 -313h-140z" />
    <glyph glyph-name="onequarter" unicode="&#xbc;" horiz-adv-x="2211" 
d="M236 616v101h159v614h-155v103h278v-717h158v-101h-440zM383 31l1378 1480l76 -67l-1378 -1481zM1425 236v98l281 483h170v-483h119v-98h-119v-236h-119v236h-332zM1534 334h223v377h-4z" />
    <glyph glyph-name="onehalf" unicode="&#xbd;" horiz-adv-x="2211" 
d="M236 616v101h159v614h-155v103h278v-717h158v-101h-440zM383 31l1378 1480l76 -67l-1378 -1481zM1477 614q0 43 17 82t50 70t80 48t107 17q117 0 184 -66.5t67 -162.5q0 -35 -8 -70.5t-30.5 -76.5t-62.5 -91.5t-103 -113.5l-144 -146h365v-104h-514v102q33 31 71 70
q33 33 74 75t88 91q82 88 113 144.5t31 115.5q0 53 -34 92t-99 39q-57 0 -94.5 -31.5t-37.5 -87.5q0 -20 5.5 -42.5t19.5 -51.5l-113 -24q-16 33 -24 62.5t-8 59.5z" />
    <glyph glyph-name="threequarters" unicode="&#xbe;" horiz-adv-x="2211" 
d="M236 844v39h122v-33q0 -59 33 -103.5t98 -44.5q70 0 104 46.5t34 117.5q0 68 -41 112t-117 44q-18 0 -44 -2t-38 -6v98l215 219h-328v103h457v-113l-215 -213q100 0 167 -66.5t67 -169.5q0 -123 -68.5 -196.5t-189.5 -73.5q-117 0 -186.5 65.5t-69.5 176.5zM383 31
l1378 1480l76 -67l-1378 -1481zM1425 236v98l281 483h170v-483h119v-98h-119v-236h-119v236h-332zM1534 334h223v377h-4z" />
    <glyph glyph-name="questiondown" unicode="&#xbf;" horiz-adv-x="929" 
d="M68 -166q0 57 17 120.5t59 118t110 95.5t166 53l10 287h107l18 -385h-59q-78 0 -134.5 -23.5t-93.5 -63.5t-54 -93.5t-17 -112.5q0 -66 20.5 -117t57 -86t85 -53t103.5 -18q135 0 210 89t64 249h127v-21q0 -211 -109.5 -320.5t-295.5 -109.5q-82 0 -152.5 26.5t-124 77
t-84 123t-30.5 164.5zM360 803q0 51 36 87t89 36q51 0 87 -36t36 -87q0 -53 -35.5 -89t-87.5 -36q-53 0 -89 36t-36 89z" />
    <glyph glyph-name="Agrave" unicode="&#xc0;" horiz-adv-x="1257" 
d="M55 0l494 1434h158l495 -1434h-137l-172 506h-539l-168 -506h-131zM360 1927h154l123 -325h-113zM389 616h467l-229 693h-6z" />
    <glyph glyph-name="Aacute" unicode="&#xc1;" horiz-adv-x="1257" 
d="M55 0l494 1434h158l495 -1434h-137l-172 506h-539l-168 -506h-131zM389 616h467l-229 693h-6zM588 1602l123 325h153l-164 -325h-112z" />
    <glyph glyph-name="Acircumflex" unicode="&#xc2;" horiz-adv-x="1257" 
d="M55 0l494 1434h158l495 -1434h-137l-172 506h-539l-168 -506h-131zM371 1602l178 325h172l178 -325h-133l-131 233l-131 -233h-133zM389 616h467l-229 693h-6z" />
    <glyph glyph-name="Atilde" unicode="&#xc3;" horiz-adv-x="1257" 
d="M55 0l494 1434h158l495 -1434h-137l-172 506h-539l-168 -506h-131zM354 1622v27q0 20 4 51t19.5 58.5t45.5 47t81 19.5q31 0 63.5 -13.5t65.5 -30t62.5 -29.5t49.5 -13t35 9t15 50v23h110v-27q0 -20 -4 -51t-19.5 -58.5t-45 -47t-80.5 -19.5q-33 0 -68 13.5t-66.5 29.5
t-60.5 29.5t-47 13.5q-20 0 -34.5 -9t-14.5 -50v-23h-111zM389 616h467l-229 693h-6z" />
    <glyph glyph-name="Adieresis" unicode="&#xc4;" horiz-adv-x="1257" 
d="M55 0l494 1434h158l495 -1434h-137l-172 506h-539l-168 -506h-131zM369 1694q0 41 30.5 71.5t71.5 30.5t72.5 -30.5t31.5 -71.5t-31.5 -72t-72.5 -31t-71.5 31t-30.5 72zM389 616h467l-229 693h-6zM692 1694q0 41 31 71.5t72 30.5t72.5 -30.5t31.5 -71.5t-31.5 -72
t-72.5 -31t-72 31t-31 72z" />
    <glyph glyph-name="Aring" unicode="&#xc5;" horiz-adv-x="1257" 
d="M55 0l494 1434h158l495 -1434h-137l-172 506h-539l-168 -506h-131zM389 616h467l-229 693h-6zM412 1726q0 47 17 88t48 71t71 46.5t85 16.5t86 -16.5t71.5 -46.5t48 -70.5t17.5 -88.5q0 -47 -17.5 -87t-48 -69.5t-71.5 -46t-86 -16.5t-85 16.5t-71 46t-48 69.5t-17 87z
M520 1726q0 -49 31 -84.5t82 -35.5t81.5 35.5t30.5 84.5q0 51 -30.5 86t-81.5 35t-82 -34.5t-31 -86.5z" />
    <glyph glyph-name="AE" unicode="&#xc6;" horiz-adv-x="1923" 
d="M-20 0l843 1434h1028v-119h-778v-531h526v-112h-526v-555h778v-117h-909v672h-426l-383 -672h-153zM580 784h362v531h-59z" />
    <glyph glyph-name="Ccedilla" unicode="&#xc7;" horiz-adv-x="1564" 
d="M92 717q0 162 56.5 298t154.5 234.5t231.5 153.5t284.5 55q117 0 223.5 -32.5t193.5 -95t151.5 -150.5t99.5 -199h-133q-61 168 -198.5 266.5t-336.5 98.5q-133 0 -243.5 -48.5t-189.5 -132.5t-123 -198.5t-44 -249.5t44 -251t123 -200t189.5 -132t243.5 -48
q199 0 336 98.5t199 266.5h133q-33 -104 -91.5 -187.5t-137 -145t-174 -97t-203.5 -44.5l-129 -305h-109l109 308q-139 12 -259 71.5t-209 155.5t-140.5 226t-51.5 284z" />
    <glyph glyph-name="Egrave" unicode="&#xc8;" horiz-adv-x="1204" 
d="M184 0v1434h949v-119h-822v-529h529v-112h-529v-557h822v-117h-949zM420 1927h153l123 -325h-112z" />
    <glyph glyph-name="Eacute" unicode="&#xc9;" horiz-adv-x="1204" 
d="M184 0v1434h949v-119h-822v-529h529v-112h-529v-557h822v-117h-949zM600 1602l123 325h154l-164 -325h-113z" />
    <glyph glyph-name="Ecircumflex" unicode="&#xca;" horiz-adv-x="1204" 
d="M184 0v1434h949v-119h-822v-529h529v-112h-529v-557h822v-117h-949zM406 1602l178 325h172l178 -325h-133l-131 233l-131 -233h-133z" />
    <glyph glyph-name="Edieresis" unicode="&#xcb;" horiz-adv-x="1204" 
d="M184 0v1434h949v-119h-822v-529h529v-112h-529v-557h822v-117h-949zM383 1694q0 41 30.5 71.5t71.5 30.5t73 -30.5t32 -71.5t-32 -72t-73 -31t-71.5 31t-30.5 72zM707 1694q0 41 30.5 71.5t71.5 30.5t72.5 -30.5t31.5 -71.5t-31.5 -72t-72.5 -31t-71.5 31t-30.5 72z" />
    <glyph glyph-name="Igrave" unicode="&#xcc;" horiz-adv-x="495" 
d="M8 1927h154l123 -325h-113zM184 0v1434h127v-1434h-127z" />
    <glyph glyph-name="Iacute" unicode="&#xcd;" horiz-adv-x="495" 
d="M184 0v1434h127v-1434h-127zM209 1602l123 325h153l-163 -325h-113z" />
    <glyph glyph-name="Icircumflex" unicode="&#xce;" horiz-adv-x="495" 
d="M-8 1602l178 325h172l178 -325h-133l-131 233l-131 -233h-133zM184 0v1434h127v-1434h-127z" />
    <glyph glyph-name="Idieresis" unicode="&#xcf;" horiz-adv-x="495" 
d="M-10 1694q0 41 30.5 71.5t71.5 30.5t73 -30.5t32 -71.5t-32 -72t-73 -31t-71.5 31t-30.5 72zM184 0v1434h127v-1434h-127zM313 1694q0 41 31 71.5t72 30.5t72.5 -30.5t31.5 -71.5t-31.5 -72t-72.5 -31t-72 31t-31 72z" />
    <glyph glyph-name="Eth" unicode="&#xd0;" horiz-adv-x="1402" 
d="M6 674v112h184v648h365q184 0 325.5 -52.5t236.5 -146.5t143.5 -226t48.5 -292t-48.5 -292t-143.5 -226.5t-236.5 -146.5t-325.5 -52h-365v674h-184zM317 111h236q141 0 257 37.5t198 114.5t127 190.5t45 263.5t-45 263.5t-127 189t-198 113.5t-257 38h-236v-535h480
v-112h-480v-563z" />
    <glyph glyph-name="Ntilde" unicode="&#xd1;" horiz-adv-x="1355" 
d="M184 0v1434h176l691 -1250v1250h120v-1434h-157l-709 1276v-1276h-121zM401 1622v27q0 20 4.5 51t19.5 58.5t45 47t81 19.5q31 0 63.5 -13.5t65.5 -30t62.5 -29.5t50.5 -13q20 0 34.5 9t14.5 50v23h110v-27q0 -20 -4 -51t-19.5 -58.5t-45 -47t-80.5 -19.5q-33 0 -68 13.5
t-66.5 29.5t-60 29.5t-47.5 13.5q-20 0 -34.5 -9t-14.5 -50v-23h-111z" />
    <glyph glyph-name="Ograve" unicode="&#xd2;" horiz-adv-x="1634" 
d="M90 717q0 162 57.5 298t155.5 234.5t231.5 153.5t282.5 55q152 0 284 -55t230.5 -153.5t155.5 -234.5t57 -298t-57 -298t-155.5 -234.5t-230.5 -154t-284 -55.5q-150 0 -283 55.5t-231 154t-155.5 234.5t-57.5 298zM217 717q0 -135 44 -251t123 -200t189.5 -132
t243.5 -48t243.5 48t189.5 132t123 200t44 251t-44 250.5t-123 199.5t-189.5 132.5t-243.5 48.5t-243.5 -48.5t-189.5 -132.5t-123 -199.5t-44 -250.5zM602 1927h154l123 -325h-113z" />
    <glyph glyph-name="Oacute" unicode="&#xd3;" horiz-adv-x="1634" 
d="M90 717q0 162 57.5 298t155.5 234.5t231.5 153.5t282.5 55q152 0 284 -55t230.5 -153.5t155.5 -234.5t57 -298t-57 -298t-155.5 -234.5t-230.5 -154t-284 -55.5q-150 0 -283 55.5t-231 154t-155.5 234.5t-57.5 298zM217 717q0 -135 44 -251t123 -200t189.5 -132
t243.5 -48t243.5 48t189.5 132t123 200t44 251t-44 250.5t-123 199.5t-189.5 132.5t-243.5 48.5t-243.5 -48.5t-189.5 -132.5t-123 -199.5t-44 -250.5zM776 1602l123 325h154l-164 -325h-113z" />
    <glyph glyph-name="Ocircumflex" unicode="&#xd4;" horiz-adv-x="1634" 
d="M90 717q0 162 57.5 298t155.5 234.5t231.5 153.5t282.5 55q152 0 284 -55t230.5 -153.5t155.5 -234.5t57 -298t-57 -298t-155.5 -234.5t-230.5 -154t-284 -55.5q-150 0 -283 55.5t-231 154t-155.5 234.5t-57.5 298zM217 717q0 -135 44 -251t123 -200t189.5 -132
t243.5 -48t243.5 48t189.5 132t123 200t44 251t-44 250.5t-123 199.5t-189.5 132.5t-243.5 48.5t-243.5 -48.5t-189.5 -132.5t-123 -199.5t-44 -250.5zM557 1602l178 325h172l178 -325h-133l-131 233l-131 -233h-133z" />
    <glyph glyph-name="Otilde" unicode="&#xd5;" horiz-adv-x="1634" 
d="M90 717q0 162 57.5 298t155.5 234.5t231.5 153.5t282.5 55q152 0 284 -55t230.5 -153.5t155.5 -234.5t57 -298t-57 -298t-155.5 -234.5t-230.5 -154t-284 -55.5q-150 0 -283 55.5t-231 154t-155.5 234.5t-57.5 298zM217 717q0 -135 44 -251t123 -200t189.5 -132
t243.5 -48t243.5 48t189.5 132t123 200t44 251t-44 250.5t-123 199.5t-189.5 132.5t-243.5 48.5t-243.5 -48.5t-189.5 -132.5t-123 -199.5t-44 -250.5zM541 1622v27q0 20 4 51t19.5 58.5t45 47t80.5 19.5q31 0 63.5 -13.5t65.5 -30t62.5 -29.5t50.5 -13q20 0 34.5 9t14.5 50
v23h111v-27q0 -20 -4.5 -51t-19.5 -58.5t-45 -47t-81 -19.5q-33 0 -67.5 13.5t-66.5 29.5t-60.5 29.5t-47.5 13.5q-20 0 -34.5 -9t-14.5 -50v-23h-110z" />
    <glyph glyph-name="Odieresis" unicode="&#xd6;" horiz-adv-x="1634" 
d="M90 717q0 162 57.5 298t155.5 234.5t231.5 153.5t282.5 55q152 0 284 -55t230.5 -153.5t155.5 -234.5t57 -298t-57 -298t-155.5 -234.5t-230.5 -154t-284 -55.5q-150 0 -283 55.5t-231 154t-155.5 234.5t-57.5 298zM217 717q0 -135 44 -251t123 -200t189.5 -132
t243.5 -48t243.5 48t189.5 132t123 200t44 251t-44 250.5t-123 199.5t-189.5 132.5t-243.5 48.5t-243.5 -48.5t-189.5 -132.5t-123 -199.5t-44 -250.5zM557 1694q0 41 30.5 71.5t71.5 30.5t73 -30.5t32 -71.5t-32 -72t-73 -31t-71.5 31t-30.5 72zM881 1694q0 41 30.5 71.5
t71.5 30.5t72.5 -30.5t31.5 -71.5t-31.5 -72t-72.5 -31t-71.5 31t-30.5 72z" />
    <glyph glyph-name="multiply" unicode="&#xd7;" horiz-adv-x="1003" 
d="M96 420l324 323l-324 322l84 82l322 -322l321 322l84 -82l-323 -322l323 -323l-84 -82l-321 321l-322 -321z" />
    <glyph glyph-name="Oslash" unicode="&#xd8;" horiz-adv-x="1632" 
d="M90 717q0 162 57.5 298t155.5 234.5t231.5 153.5t282.5 55q127 0 240.5 -40t206.5 -111l133 151h143l-194 -223q92 -98 145 -230.5t53 -287.5q0 -162 -57 -298t-155.5 -234.5t-230.5 -154t-284 -55.5q-127 0 -239.5 38t-204.5 110l-129 -148h-144l193 220
q-96 98 -149.5 230t-53.5 292zM217 717q0 -129 40 -239.5t112 -196.5l821 942q-74 59 -168 92t-205 33q-133 0 -243.5 -48.5t-189.5 -132.5t-123 -199.5t-44 -250.5zM446 207q74 -59 167.5 -90t203.5 -31q133 0 243.5 48t189.5 132t123 200t44 251q0 129 -39 237.5
t-110 192.5z" />
    <glyph glyph-name="Ugrave" unicode="&#xd9;" horiz-adv-x="1286" 
d="M170 449v985h127v-983q0 -76 19.5 -143.5t62.5 -117t108.5 -78t157.5 -28.5q90 0 155.5 28.5t108.5 78t63.5 117t20.5 143.5v983h123v-983q0 -100 -27.5 -187.5t-86 -152t-147.5 -100.5t-212 -36t-212 36t-147.5 99.5t-86 150.5t-27.5 188zM422 1927h153l123 -325h-112z
" />
    <glyph glyph-name="Uacute" unicode="&#xda;" horiz-adv-x="1286" 
d="M170 449v985h127v-983q0 -76 19.5 -143.5t62.5 -117t108.5 -78t157.5 -28.5q90 0 155.5 28.5t108.5 78t63.5 117t20.5 143.5v983h123v-983q0 -100 -27.5 -187.5t-86 -152t-147.5 -100.5t-212 -36t-212 36t-147.5 99.5t-86 150.5t-27.5 188zM596 1602l123 325h153
l-163 -325h-113z" />
    <glyph glyph-name="Ucircumflex" unicode="&#xdb;" horiz-adv-x="1286" 
d="M170 449v985h127v-983q0 -76 19.5 -143.5t62.5 -117t108.5 -78t157.5 -28.5q90 0 155.5 28.5t108.5 78t63.5 117t20.5 143.5v983h123v-983q0 -100 -27.5 -187.5t-86 -152t-147.5 -100.5t-212 -36t-212 36t-147.5 99.5t-86 150.5t-27.5 188zM383 1602l178 325h172
l178 -325h-133l-131 233l-131 -233h-133z" />
    <glyph glyph-name="Udieresis" unicode="&#xdc;" horiz-adv-x="1286" 
d="M170 449v985h127v-983q0 -76 19.5 -143.5t62.5 -117t108.5 -78t157.5 -28.5q90 0 155.5 28.5t108.5 78t63.5 117t20.5 143.5v983h123v-983q0 -100 -27.5 -187.5t-86 -152t-147.5 -100.5t-212 -36t-212 36t-147.5 99.5t-86 150.5t-27.5 188zM383 1694q0 41 30.5 71.5
t71.5 30.5t73 -30.5t32 -71.5t-32 -72t-73 -31t-71.5 31t-30.5 72zM707 1694q0 41 30.5 71.5t71.5 30.5t72.5 -30.5t31.5 -71.5t-31.5 -72t-72.5 -31t-71.5 31t-30.5 72z" />
    <glyph glyph-name="Yacute" unicode="&#xdd;" horiz-adv-x="1277" 
d="M20 1434h154l467 -684h2l465 684h149l-552 -795v-639h-130v635zM573 1602l123 325h154l-164 -325h-113z" />
    <glyph glyph-name="Thorn" unicode="&#xde;" horiz-adv-x="1128" 
d="M184 0v1434h133v-271h256q121 0 212.5 -33.5t152.5 -93t92 -138.5t31 -169t-31 -170t-92 -140.5t-152.5 -96t-212.5 -35.5h-256v-287h-133zM317 403h267q72 0 134 21.5t108 62.5t74 101.5t28 140.5t-28 139.5t-74 99.5t-108.5 59.5t-133.5 19.5h-267v-644z" />
    <glyph glyph-name="germandbls" unicode="&#xdf;" horiz-adv-x="995" 
d="M145 0v1034q0 117 36 195t89.5 124t118 65.5t119.5 19.5q92 0 156.5 -30t105.5 -75t59.5 -99t18.5 -104q0 -74 -32 -134t-69.5 -113.5t-69.5 -100.5t-32 -96t46 -91t101.5 -90t101.5 -110.5t46 -152.5q0 -66 -23.5 -115t-64.5 -83t-95.5 -51.5t-117.5 -17.5
q-41 0 -85 6.5t-85 22.5l41 100q25 -10 55.5 -18t61.5 -8q92 0 142 44t50 122q0 68 -46 115t-101.5 92t-101.5 98t-46 133q0 55 32 110.5t69 110.5t68.5 110.5t31.5 112.5q0 82 -54.5 140.5t-160.5 58.5q-47 0 -91 -17.5t-77 -52t-52.5 -87t-19.5 -124.5v-1044h-125z" />
    <glyph glyph-name="agrave" unicode="&#xe0;" horiz-adv-x="940" 
d="M70 252q0 125 81.5 194.5t223.5 69.5h217q47 0 67.5 22.5t20.5 59.5v27q0 51 -18.5 88t-50 59.5t-72.5 33.5t-86 11q-86 0 -154 -29.5t-125 -68.5l-59 94q47 35 137 75t209 40q162 0 253 -83t91 -224v-621h-125v113q-39 -68 -120 -103t-163 -35q-147 0 -237 77t-90 200z
M201 252q0 -29 11 -59.5t36.5 -55t66 -40t97.5 -15.5q51 0 99 14.5t86 44t60.5 74.5t22.5 107v124q-16 -20 -49 -27t-68 -7h-168q-100 0 -147 -44t-47 -116zM215 1409h154l123 -326h-113z" />
    <glyph glyph-name="aacute" unicode="&#xe1;" horiz-adv-x="940" 
d="M70 252q0 125 81.5 194.5t223.5 69.5h217q47 0 67.5 22.5t20.5 59.5v27q0 51 -18.5 88t-50 59.5t-72.5 33.5t-86 11q-86 0 -154 -29.5t-125 -68.5l-59 94q47 35 137 75t209 40q162 0 253 -83t91 -224v-621h-125v113q-39 -68 -120 -103t-163 -35q-147 0 -237 77t-90 200z
M201 252q0 -29 11 -59.5t36.5 -55t66 -40t97.5 -15.5q51 0 99 14.5t86 44t60.5 74.5t22.5 107v124q-16 -20 -49 -27t-68 -7h-168q-100 0 -147 -44t-47 -116zM428 1083l123 326h154l-164 -326h-113z" />
    <glyph glyph-name="acircumflex" unicode="&#xe2;" horiz-adv-x="940" 
d="M70 252q0 125 81.5 194.5t223.5 69.5h217q47 0 67.5 22.5t20.5 59.5v27q0 51 -18.5 88t-50 59.5t-72.5 33.5t-86 11q-86 0 -154 -29.5t-125 -68.5l-59 94q47 35 137 75t209 40q162 0 253 -83t91 -224v-621h-125v113q-39 -68 -120 -103t-163 -35q-147 0 -237 77t-90 200z
M201 252q0 -29 11 -59.5t36.5 -55t66 -40t97.5 -15.5q51 0 99 14.5t86 44t60.5 74.5t22.5 107v124q-16 -20 -49 -27t-68 -7h-168q-100 0 -147 -44t-47 -116zM201 1083l178 326h172l178 -326h-133l-131 234l-131 -234h-133z" />
    <glyph glyph-name="atilde" unicode="&#xe3;" horiz-adv-x="940" 
d="M70 252q0 125 81.5 194.5t223.5 69.5h217q47 0 67.5 22.5t20.5 59.5v27q0 51 -18.5 88t-50 59.5t-72.5 33.5t-86 11q-86 0 -154 -29.5t-125 -68.5l-59 94q47 35 137 75t209 40q162 0 253 -83t91 -224v-621h-125v113q-39 -68 -120 -103t-163 -35q-147 0 -237 77t-90 200z
M184 1104v26q0 20 4.5 51t19.5 59t45 47.5t81 19.5q31 0 63.5 -13.5t65.5 -30t62.5 -29.5t49.5 -13t35 9t15 50v23h110v-27q0 -20 -4 -51t-19.5 -58.5t-45 -47t-80.5 -19.5q-33 0 -68 13t-66.5 29.5t-60.5 30t-47 13.5q-20 0 -34.5 -9.5t-14.5 -50.5v-22h-111zM201 252
q0 -29 11 -59.5t36.5 -55t66 -40t97.5 -15.5q51 0 99 14.5t86 44t60.5 74.5t22.5 107v124q-16 -20 -49 -27t-68 -7h-168q-100 0 -147 -44t-47 -116z" />
    <glyph glyph-name="adieresis" unicode="&#xe4;" horiz-adv-x="940" 
d="M70 252q0 125 81.5 194.5t223.5 69.5h217q47 0 67.5 22.5t20.5 59.5v27q0 51 -18.5 88t-50 59.5t-72.5 33.5t-86 11q-86 0 -154 -29.5t-125 -68.5l-59 94q47 35 137 75t209 40q162 0 253 -83t91 -224v-621h-125v113q-39 -68 -120 -103t-163 -35q-147 0 -237 77t-90 200z
M199 1176q0 41 30.5 71.5t71.5 30.5t73 -30.5t32 -71.5t-32 -72t-73 -31t-71.5 31t-30.5 72zM201 252q0 -29 11 -59.5t36.5 -55t66 -40t97.5 -15.5q51 0 99 14.5t86 44t60.5 74.5t22.5 107v124q-16 -20 -49 -27t-68 -7h-168q-100 0 -147 -44t-47 -116zM522 1176
q0 41 31 71.5t72 30.5t72.5 -30.5t31.5 -71.5t-31.5 -72t-72.5 -31t-72 31t-31 72z" />
    <glyph glyph-name="aring" unicode="&#xe5;" horiz-adv-x="940" 
d="M70 252q0 125 81.5 194.5t223.5 69.5h217q47 0 67.5 22.5t20.5 59.5v27q0 51 -18.5 88t-50 59.5t-72.5 33.5t-86 11q-86 0 -154 -29.5t-125 -68.5l-59 94q47 35 137 75t209 40q162 0 253 -83t91 -224v-621h-125v113q-39 -68 -120 -103t-163 -35q-147 0 -237 77t-90 200z
M201 252q0 -29 11 -59.5t36.5 -55t66 -40t97.5 -15.5q51 0 99 14.5t86 44t60.5 74.5t22.5 107v124q-16 -20 -49 -27t-68 -7h-168q-100 0 -147 -44t-47 -116zM252 1225q0 92 62.5 150.5t148.5 58.5t148.5 -58.5t62.5 -150.5t-62.5 -150.5t-148.5 -58.5t-148.5 58.5
t-62.5 150.5zM356 1225q0 -47 30 -81t77 -34t76.5 34t29.5 81t-29.5 80.5t-76.5 33.5t-77 -33.5t-30 -80.5z" />
    <glyph glyph-name="ae" unicode="&#xe6;" horiz-adv-x="1589" 
d="M70 252q0 125 81.5 194.5t223.5 69.5h217q47 0 67.5 22.5t20.5 59.5v27q0 51 -18.5 88t-50 59.5t-72.5 33.5t-86 11q-86 0 -154 -29.5t-125 -68.5l-59 94q47 35 136 75t208 40q123 0 201.5 -49.5t111.5 -126.5q49 78 130 127t200 49q84 0 159.5 -32t133 -94.5
t90.5 -158.5t33 -225v-4h-713q4 -70 27.5 -129.5t63.5 -103.5t95.5 -69.5t120.5 -25.5q90 0 150.5 40t101.5 116h137q-53 -125 -154.5 -196t-236.5 -71q-129 0 -224 63.5t-136 158.5q-45 -117 -134.5 -169.5t-214.5 -52.5q-74 0 -135 20.5t-104 57.5t-67.5 87t-24.5 112z
M201 252q0 -29 11 -59.5t36.5 -55t66 -40t97.5 -15.5q51 0 99 14.5t86 44t60.5 74.5t22.5 107v124q-16 -20 -49 -27t-68 -7h-168q-100 0 -147 -44t-47 -116zM805 516h579q-6 63 -26.5 118.5t-57 95.5t-87 63.5t-113.5 23.5q-129 0 -204 -86t-91 -215z" />
    <glyph glyph-name="ccedilla" unicode="&#xe7;" horiz-adv-x="1021" 
d="M84 451q0 104 37 191t99.5 150.5t147.5 99.5t183 36q129 0 237.5 -62.5t165.5 -167.5l-106 -61q-41 82 -118 131t-179 49q-76 0 -138.5 -28.5t-107.5 -77.5t-69.5 -116t-24.5 -144q0 -78 24.5 -144.5t69.5 -116t107.5 -78t138.5 -28.5q102 0 179 49t118 133l106 -61
q-51 -94 -144 -153.5t-208 -71.5l-129 -308h-108l110 310q-84 12 -155.5 52t-124 101.5t-82 141t-29.5 174.5z" />
    <glyph glyph-name="egrave" unicode="&#xe8;" horiz-adv-x="1060" 
d="M82 451q0 104 35 191t96 150.5t145 99.5t181 36q88 0 170 -32t145.5 -94.5t101 -158.5t37.5 -225v-4h-782q6 -70 31.5 -130.5t68.5 -104.5t101.5 -68.5t128.5 -24.5q92 0 165.5 41t114.5 115h146q-57 -123 -171 -195t-255 -72q-98 0 -182.5 36t-145.5 98.5t-96 149.5
t-35 192zM215 516h639q-6 61 -30.5 115.5t-65.5 96.5t-96 65.5t-123 23.5t-124.5 -22.5t-97.5 -63.5t-67.5 -95t-34.5 -120zM295 1409h154l122 -326h-112z" />
    <glyph glyph-name="eacute" unicode="&#xe9;" horiz-adv-x="1060" 
d="M82 451q0 104 35 191t96 150.5t145 99.5t181 36q88 0 170 -32t145.5 -94.5t101 -158.5t37.5 -225v-4h-782q6 -70 31.5 -130.5t68.5 -104.5t101.5 -68.5t128.5 -24.5q92 0 165.5 41t114.5 115h146q-57 -123 -171 -195t-255 -72q-98 0 -182.5 36t-145.5 98.5t-96 149.5
t-35 192zM215 516h639q-6 61 -30.5 115.5t-65.5 96.5t-96 65.5t-123 23.5t-124.5 -22.5t-97.5 -63.5t-67.5 -95t-34.5 -120zM510 1083l123 326h153l-163 -326h-113z" />
    <glyph glyph-name="ecircumflex" unicode="&#xea;" horiz-adv-x="1060" 
d="M82 451q0 104 35 191t96 150.5t145 99.5t181 36q88 0 170 -32t145.5 -94.5t101 -158.5t37.5 -225v-4h-782q6 -70 31.5 -130.5t68.5 -104.5t101.5 -68.5t128.5 -24.5q92 0 165.5 41t114.5 115h146q-57 -123 -171 -195t-255 -72q-98 0 -182.5 36t-145.5 98.5t-96 149.5
t-35 192zM215 516h639q-6 61 -30.5 115.5t-65.5 96.5t-96 65.5t-123 23.5t-124.5 -22.5t-97.5 -63.5t-67.5 -95t-34.5 -120zM272 1083l179 326h172l178 -326h-133l-131 234l-131 -234h-134z" />
    <glyph glyph-name="edieresis" unicode="&#xeb;" horiz-adv-x="1060" 
d="M82 451q0 104 35 191t96 150.5t145 99.5t181 36q88 0 170 -32t145.5 -94.5t101 -158.5t37.5 -225v-4h-782q6 -70 31.5 -130.5t68.5 -104.5t101.5 -68.5t128.5 -24.5q92 0 165.5 41t114.5 115h146q-57 -123 -171 -195t-255 -72q-98 0 -182.5 36t-145.5 98.5t-96 149.5
t-35 192zM215 516h639q-6 61 -30.5 115.5t-65.5 96.5t-96 65.5t-123 23.5t-124.5 -22.5t-97.5 -63.5t-67.5 -95t-34.5 -120zM272 1176q0 41 31 71.5t72 30.5t72.5 -30.5t31.5 -71.5t-31.5 -72t-72.5 -31t-72 31t-31 72zM596 1176q0 41 30.5 71.5t71.5 30.5t73 -30.5
t32 -71.5t-32 -72t-73 -31t-71.5 31t-30.5 72z" />
    <glyph glyph-name="igrave" unicode="&#xec;" horiz-adv-x="448" 
d="M2 1409h154l123 -326h-113zM35 799v104h268v-903h-125v799h-143z" />
    <glyph glyph-name="iacute" unicode="&#xed;" horiz-adv-x="448" 
d="M35 799v104h268v-903h-125v799h-143zM186 1083l123 326h154l-164 -326h-113z" />
    <glyph glyph-name="icircumflex" unicode="&#xee;" horiz-adv-x="448" 
d="M-31 1083l178 326h172l179 -326h-133l-132 234l-131 -234h-133zM35 799v104h268v-903h-125v799h-143z" />
    <glyph glyph-name="idieresis" unicode="&#xef;" horiz-adv-x="448" 
d="M-31 1176q0 41 31 71.5t72 30.5t72.5 -30.5t31.5 -71.5t-31.5 -72t-72.5 -31t-72 31t-31 72zM35 799v104h268v-903h-125v799h-143zM293 1176q0 41 30.5 71.5t71.5 30.5t73 -30.5t32 -71.5t-32 -72t-73 -31t-71.5 31t-30.5 72z" />
    <glyph glyph-name="eth" unicode="&#xf0;" horiz-adv-x="1103" 
d="M82 451q0 104 36 191t98.5 150.5t147.5 99.5t181 36q29 0 64.5 -6.5t72.5 -21.5t74 -37.5t63 -57.5l10 8q-39 86 -109.5 173t-148.5 165l-182 -127l-55 80l166 115q-78 70 -143.5 118.5t-98.5 69.5l168 4q31 -20 75 -52t93 -73l192 133l56 -80l-172 -120
q63 -61 124.5 -138t110.5 -169.5t80 -198t31 -224.5q0 -117 -36 -211t-98.5 -161.5t-148.5 -104.5t-184 -37q-96 0 -181 36t-148.5 98.5t-100.5 149.5t-37 192zM209 451q0 -76 24.5 -142.5t69.5 -116t107.5 -78t138.5 -28.5t138.5 28.5t107.5 78t69.5 116t24.5 142.5
q0 78 -24.5 144.5t-69.5 115.5t-107.5 76.5t-138.5 27.5t-138.5 -27.5t-107.5 -76.5t-69.5 -116t-24.5 -144z" />
    <glyph glyph-name="ntilde" unicode="&#xf1;" horiz-adv-x="1054" 
d="M145 0v903h123v-129q61 74 143.5 114t180.5 40q160 0 244 -89t84 -239v-600h-125v594q0 111 -62.5 167t-161.5 56q-82 0 -158.5 -42t-142.5 -118v-657h-125zM250 1104v26q0 20 4 51t19.5 59t45 47.5t80.5 19.5q31 0 64 -13.5t65.5 -30t62.5 -29.5t50 -13t34.5 9t14.5 50
v23h111v-27q0 -20 -4 -51t-19.5 -58.5t-45.5 -47t-81 -19.5q-33 0 -67.5 13t-66.5 29.5t-60.5 30t-46.5 13.5q-20 0 -35 -9.5t-15 -50.5v-22h-110z" />
    <glyph glyph-name="ograve" unicode="&#xf2;" horiz-adv-x="1095" 
d="M80 451q0 104 37 191t100.5 150.5t148.5 99.5t181 36q98 0 183 -36t148.5 -99.5t100.5 -150.5t37 -191t-37 -191.5t-100.5 -150t-148.5 -98.5t-183 -36q-96 0 -181 36t-148.5 98.5t-100.5 150t-37 191.5zM207 451q0 -78 24.5 -144.5t69.5 -116t107.5 -78t138.5 -28.5
t139.5 28.5t108.5 78t69.5 116t24.5 144.5t-24.5 144.5t-69.5 115.5t-108.5 77.5t-139.5 28.5t-138.5 -28.5t-107.5 -77.5t-69.5 -116t-24.5 -144zM297 1409h154l122 -326h-112z" />
    <glyph glyph-name="oacute" unicode="&#xf3;" horiz-adv-x="1095" 
d="M80 451q0 104 37 191t100.5 150.5t148.5 99.5t181 36q98 0 183 -36t148.5 -99.5t100.5 -150.5t37 -191t-37 -191.5t-100.5 -150t-148.5 -98.5t-183 -36q-96 0 -181 36t-148.5 98.5t-100.5 150t-37 191.5zM207 451q0 -78 24.5 -144.5t69.5 -116t107.5 -78t138.5 -28.5
t139.5 28.5t108.5 78t69.5 116t24.5 144.5t-24.5 144.5t-69.5 115.5t-108.5 77.5t-139.5 28.5t-138.5 -28.5t-107.5 -77.5t-69.5 -116t-24.5 -144zM518 1083l123 326h154l-164 -326h-113z" />
    <glyph glyph-name="ocircumflex" unicode="&#xf4;" horiz-adv-x="1095" 
d="M80 451q0 104 37 191t100.5 150.5t148.5 99.5t181 36q98 0 183 -36t148.5 -99.5t100.5 -150.5t37 -191t-37 -191.5t-100.5 -150t-148.5 -98.5t-183 -36q-96 0 -181 36t-148.5 98.5t-100.5 150t-37 191.5zM207 451q0 -78 24.5 -144.5t69.5 -116t107.5 -78t138.5 -28.5
t139.5 28.5t108.5 78t69.5 116t24.5 144.5t-24.5 144.5t-69.5 115.5t-108.5 77.5t-139.5 28.5t-138.5 -28.5t-107.5 -77.5t-69.5 -116t-24.5 -144zM283 1083l178 326h172l178 -326h-133l-131 234l-131 -234h-133z" />
    <glyph glyph-name="otilde" unicode="&#xf5;" horiz-adv-x="1095" 
d="M80 451q0 104 37 191t100.5 150.5t148.5 99.5t181 36q98 0 183 -36t148.5 -99.5t100.5 -150.5t37 -191t-37 -191.5t-100.5 -150t-148.5 -98.5t-183 -36q-96 0 -181 36t-148.5 98.5t-100.5 150t-37 191.5zM207 451q0 -78 24.5 -144.5t69.5 -116t107.5 -78t138.5 -28.5
t139.5 28.5t108.5 78t69.5 116t24.5 144.5t-24.5 144.5t-69.5 115.5t-108.5 77.5t-139.5 28.5t-138.5 -28.5t-107.5 -77.5t-69.5 -116t-24.5 -144zM266 1104v26q0 20 4 51t19.5 59t45.5 47.5t81 19.5q31 0 63.5 -13.5t65.5 -30t62.5 -29.5t49.5 -13t35 9t15 50v23h110v-27
q0 -20 -4 -51t-19.5 -58.5t-45 -47t-80.5 -19.5q-33 0 -68 13t-66.5 29.5t-60.5 30t-47 13.5q-20 0 -34.5 -9.5t-14.5 -50.5v-22h-111z" />
    <glyph glyph-name="odieresis" unicode="&#xf6;" horiz-adv-x="1095" 
d="M80 451q0 104 37 191t100.5 150.5t148.5 99.5t181 36q98 0 183 -36t148.5 -99.5t100.5 -150.5t37 -191t-37 -191.5t-100.5 -150t-148.5 -98.5t-183 -36q-96 0 -181 36t-148.5 98.5t-100.5 150t-37 191.5zM207 451q0 -78 24.5 -144.5t69.5 -116t107.5 -78t138.5 -28.5
t139.5 28.5t108.5 78t69.5 116t24.5 144.5t-24.5 144.5t-69.5 115.5t-108.5 77.5t-139.5 28.5t-138.5 -28.5t-107.5 -77.5t-69.5 -116t-24.5 -144zM281 1176q0 41 30.5 71.5t71.5 30.5t72.5 -30.5t31.5 -71.5t-31.5 -72t-72.5 -31t-71.5 31t-30.5 72zM604 1176q0 41 31 71.5
t72 30.5t72.5 -30.5t31.5 -71.5t-31.5 -72t-72.5 -31t-72 31t-31 72z" />
    <glyph glyph-name="divide" unicode="&#xf7;" horiz-adv-x="983" 
d="M61 670v108h861v-108h-861zM365 379q0 53 35.5 90t88.5 37t89 -37t36 -90t-35.5 -89t-89.5 -36q-53 0 -88.5 36t-35.5 89zM365 1067q0 53 35.5 90t88.5 37t89 -37t36 -90t-35.5 -89t-89.5 -36q-53 0 -88.5 36t-35.5 89z" />
    <glyph glyph-name="oslash" unicode="&#xf8;" horiz-adv-x="1095" 
d="M80 451q0 104 37 191t100.5 150.5t148.5 99.5t181 36q72 0 138.5 -20.5t121.5 -57.5l63 78h134l-117 -144q59 -63 94 -148t35 -185q0 -104 -37 -191.5t-100.5 -150t-148.5 -98.5t-183 -36q-145 0 -260 76l-64 -76h-133l117 144q-59 63 -93 147.5t-34 184.5zM207 451
q0 -70 20.5 -131.5t55.5 -108.5l450 551q-82 55 -186 55q-76 0 -138.5 -28.5t-107.5 -77.5t-69.5 -115.5t-24.5 -144.5zM358 139q84 -55 189 -55q76 0 139.5 28.5t108.5 78t69.5 116t24.5 144.5q0 70 -20.5 132t-57.5 109z" />
    <glyph glyph-name="ugrave" unicode="&#xf9;" horiz-adv-x="1040" 
d="M133 322v581h125v-569q0 -123 75 -185.5t187 -62.5q113 0 187.5 62.5t74.5 185.5v569h125v-581q0 -72 -24.5 -134.5t-73.5 -109.5t-122 -75t-167 -28t-166.5 28t-122 75t-74 109.5t-24.5 134.5zM371 1409h153l123 -326h-112z" />
    <glyph glyph-name="uacute" unicode="&#xfa;" horiz-adv-x="1040" 
d="M133 322v581h125v-569q0 -123 75 -185.5t187 -62.5q113 0 187.5 62.5t74.5 185.5v569h125v-581q0 -72 -24.5 -134.5t-73.5 -109.5t-122 -75t-167 -28t-166.5 28t-122 75t-74 109.5t-24.5 134.5zM457 1083l123 326h153l-164 -326h-112z" />
    <glyph glyph-name="ucircumflex" unicode="&#xfb;" horiz-adv-x="1040" 
d="M133 322v581h125v-569q0 -123 75 -185.5t187 -62.5q113 0 187.5 62.5t74.5 185.5v569h125v-581q0 -72 -24.5 -134.5t-73.5 -109.5t-122 -75t-167 -28t-166.5 28t-122 75t-74 109.5t-24.5 134.5zM254 1083l178 326h172l178 -326h-133l-131 234l-131 -234h-133z" />
    <glyph glyph-name="udieresis" unicode="&#xfc;" horiz-adv-x="1040" 
d="M133 322v581h125v-569q0 -123 75 -185.5t187 -62.5q113 0 187.5 62.5t74.5 185.5v569h125v-581q0 -72 -24.5 -134.5t-73.5 -109.5t-122 -75t-167 -28t-166.5 28t-122 75t-74 109.5t-24.5 134.5zM254 1176q0 41 30.5 71.5t71.5 30.5t73 -30.5t32 -71.5t-32 -72t-73 -31
t-71.5 31t-30.5 72zM578 1176q0 41 30.5 71.5t71.5 30.5t72.5 -30.5t31.5 -71.5t-31.5 -72t-72.5 -31t-71.5 31t-30.5 72z" />
    <glyph glyph-name="yacute" unicode="&#xfd;" horiz-adv-x="956" 
d="M57 903h140l282 -803l291 803h133l-403 -1063q-18 -49 -40 -86t-50.5 -61.5t-69.5 -37.5t-98 -13h-105v104h103q68 0 98.5 35t56.5 104l43 115h-45zM412 1083l123 326h153l-164 -326h-112z" />
    <glyph glyph-name="thorn" unicode="&#xfe;" horiz-adv-x="1157" 
d="M145 -358v1792h127v-711q20 43 56.5 81t82.5 65.5t100 43t112 15.5q98 0 181 -36t143.5 -99.5t94 -150.5t33.5 -191t-34.5 -191.5t-96 -150t-144.5 -98.5t-179 -36q-117 0 -212.5 56.5t-136.5 142.5v-532h-127zM270 451q0 -76 26 -142.5t71 -116t107.5 -77t137.5 -27.5
q74 0 135.5 27.5t105.5 77t67.5 116t23.5 142.5q0 78 -23.5 144.5t-67.5 115.5t-105.5 76.5t-135.5 27.5q-76 0 -138 -27.5t-107 -76.5t-71 -116t-26 -144z" />
    <glyph glyph-name="ydieresis" unicode="&#xff;" horiz-adv-x="956" 
d="M57 903h140l282 -803l291 803h133l-403 -1063q-18 -49 -40 -86t-50.5 -61.5t-69.5 -37.5t-98 -13h-105v104h103q68 0 98.5 35t56.5 104l43 115h-45zM213 1176q0 41 30.5 71.5t71.5 30.5t73 -30.5t32 -71.5t-32 -72t-73 -31t-71.5 31t-30.5 72zM537 1176q0 41 30.5 71.5
t71.5 30.5t72.5 -30.5t31.5 -71.5t-31.5 -72t-72.5 -31t-71.5 31t-30.5 72z" />
    <glyph glyph-name="OE" unicode="&#x152;" horiz-adv-x="2109" 
d="M98 717q0 160 48.5 292t143.5 226t235.5 146.5t324.5 52.5h1190v-121h-821v-527h528v-114h-528v-553h821v-119h-1190q-184 0 -324.5 52t-235.5 146.5t-143.5 226.5t-48.5 292zM231 717q0 -150 44 -263.5t126 -188.5t197 -112.5t256 -37.5h233v1202h-233q-141 0 -256 -38
t-197 -112.5t-126 -187t-44 -262.5z" />
    <glyph glyph-name="oe" unicode="&#x153;" horiz-adv-x="1865" 
d="M80 451q0 104 37 191t100.5 150.5t148.5 99.5t181 36q135 0 240.5 -65.5t162.5 -178.5q53 113 155.5 178.5t237.5 65.5q88 0 170 -32t145.5 -94.5t101.5 -158.5t38 -225v-4h-782q6 -70 31.5 -130.5t68.5 -104.5t101.5 -68.5t128.5 -24.5q92 0 165.5 41t114.5 115h146
q-57 -123 -171 -195t-255 -72q-135 0 -238.5 64.5t-157.5 177.5q-57 -113 -162.5 -177.5t-240.5 -64.5q-96 0 -181 36t-148.5 98.5t-100.5 149.5t-37 192zM207 451q0 -76 24.5 -143.5t69.5 -117t107.5 -78t138.5 -28.5q78 0 140.5 28.5t107.5 78t69.5 117t24.5 143.5
q0 78 -24.5 144.5t-69.5 115.5t-107.5 77.5t-140.5 28.5q-76 0 -138.5 -28.5t-107.5 -77.5t-69.5 -116t-24.5 -144zM1020 516h639q-6 61 -30.5 115.5t-65.5 96.5t-96.5 65.5t-123.5 23.5t-124 -22.5t-97 -63.5t-67.5 -95t-34.5 -120z" />
    <glyph glyph-name="Ydieresis" unicode="&#x178;" horiz-adv-x="1277" 
d="M20 1434h154l467 -684h2l465 684h149l-552 -795v-639h-130v635zM381 1696q0 41 30.5 71.5t71.5 30.5t73 -30.5t32 -71.5t-32 -72t-73 -31t-71.5 31t-30.5 72zM705 1696q0 41 30.5 71.5t71.5 30.5t72.5 -30.5t31.5 -71.5t-31.5 -72t-72.5 -31t-71.5 31t-30.5 72z" />
    <glyph glyph-name="circumflex" unicode="&#x2c6;" horiz-adv-x="651" 
d="M61 1083l179 326h172l178 -326h-133l-131 234l-131 -234h-134z" />
    <glyph glyph-name="tilde" unicode="&#x2dc;" horiz-adv-x="704" 
d="M72 1104v26q0 20 4 51t19.5 59t45 47.5t80.5 19.5q31 0 63.5 -13.5t65.5 -30t62.5 -29.5t50.5 -13q20 0 34.5 9t14.5 50v23h111v-27q0 -20 -4.5 -51t-19.5 -58.5t-45 -47t-81 -19.5q-33 0 -67.5 13t-66.5 29.5t-60.5 30t-47.5 13.5q-20 0 -34.5 -9.5t-14.5 -50.5v-22
h-110z" />
    <glyph glyph-name="uni2000" unicode="&#x2000;" horiz-adv-x="974" 
 />
    <glyph glyph-name="uni2001" unicode="&#x2001;" horiz-adv-x="1948" 
 />
    <glyph glyph-name="uni2002" unicode="&#x2002;" horiz-adv-x="974" 
 />
    <glyph glyph-name="uni2003" unicode="&#x2003;" horiz-adv-x="1948" 
 />
    <glyph glyph-name="uni2004" unicode="&#x2004;" horiz-adv-x="649" 
 />
    <glyph glyph-name="uni2005" unicode="&#x2005;" horiz-adv-x="487" 
 />
    <glyph glyph-name="uni2006" unicode="&#x2006;" horiz-adv-x="324" 
 />
    <glyph glyph-name="uni2007" unicode="&#x2007;" horiz-adv-x="324" 
 />
    <glyph glyph-name="uni2008" unicode="&#x2008;" horiz-adv-x="243" 
 />
    <glyph glyph-name="uni2009" unicode="&#x2009;" horiz-adv-x="389" 
 />
    <glyph glyph-name="uni200A" unicode="&#x200a;" horiz-adv-x="108" 
 />
    <glyph glyph-name="uni2010" unicode="&#x2010;" horiz-adv-x="512" 
d="M41 516v105h428v-105h-428z" />
    <glyph glyph-name="uni2011" unicode="&#x2011;" horiz-adv-x="512" 
d="M41 516v105h428v-105h-428z" />
    <glyph glyph-name="figuredash" unicode="&#x2012;" horiz-adv-x="512" 
d="M41 516v105h428v-105h-428z" />
    <glyph glyph-name="endash" unicode="&#x2013;" horiz-adv-x="1024" 
d="M82 516v105h860v-105h-860z" />
    <glyph glyph-name="emdash" unicode="&#x2014;" horiz-adv-x="2048" 
d="M82 516v105h1884v-105h-1884z" />
    <glyph glyph-name="quoteleft" unicode="&#x2018;" horiz-adv-x="481" 
d="M109 1130q0 20 6 42t14 36l135 250h111l-94 -209q35 -14 56 -46t21 -73q0 -51 -35.5 -87.5t-89.5 -36.5q-51 0 -87.5 35.5t-36.5 88.5z" />
    <glyph glyph-name="quoteright" unicode="&#x2019;" horiz-adv-x="491" 
d="M125 1006l94 208q-35 12 -56.5 44t-21.5 73q0 53 36 90t89 37q51 0 88 -37t37 -90q0 -18 -6 -39.5t-14 -38.5l-135 -247h-111z" />
    <glyph glyph-name="quotesinglbase" unicode="&#x201a;" horiz-adv-x="507" 
d="M113 -227l94 209q-35 12 -56.5 43.5t-21.5 72.5q0 53 36 90t89 37q51 0 88 -36.5t37 -90.5q0 -18 -6 -39.5t-15 -38.5l-135 -247h-110z" />
    <glyph glyph-name="quotedblleft" unicode="&#x201c;" horiz-adv-x="831" 
d="M109 1130q0 20 6 42t14 36l135 250h111l-94 -209q35 -14 56 -46t21 -73q0 -51 -35.5 -87.5t-89.5 -36.5q-51 0 -87.5 35.5t-36.5 88.5zM459 1130q0 20 5 42t13 36l135 250h113l-94 -209q35 -14 55.5 -46t20.5 -73q0 -51 -35 -87.5t-88 -36.5t-89 35.5t-36 88.5z" />
    <glyph glyph-name="quotedblright" unicode="&#x201d;" horiz-adv-x="841" 
d="M125 1006l94 208q-35 12 -56.5 44t-21.5 73q0 53 36 90t89 37q51 0 88 -37t37 -90q0 -18 -6 -39.5t-14 -38.5l-135 -247h-111zM473 1006l94 208q-35 12 -55 44t-20 73q0 53 34.5 90t87.5 37t89 -37t36 -90q0 -18 -5 -39.5t-13 -38.5l-135 -247h-113z" />
    <glyph glyph-name="quotedblbase" unicode="&#x201e;" horiz-adv-x="856" 
d="M113 -227l94 209q-35 12 -56.5 43.5t-21.5 72.5q0 53 36 90t89 37q51 0 88 -36.5t37 -90.5q0 -18 -6 -39.5t-15 -38.5l-135 -247h-110zM461 -227l94 209q-35 12 -55.5 43.5t-20.5 72.5q0 53 35 90t88 37t89 -36.5t36 -90.5q0 -18 -5 -39.5t-13 -38.5l-136 -247h-112z" />
    <glyph glyph-name="bullet" unicode="&#x2022;" horiz-adv-x="716" 
d="M168 735q0 78 56.5 133.5t133.5 55.5q39 0 73 -15.5t59.5 -41t41 -59.5t15.5 -73q0 -78 -55.5 -134t-133.5 -56t-134 56t-56 134z" />
    <glyph glyph-name="ellipsis" unicode="&#x2026;" horiz-adv-x="1734" 
d="M127 98q0 53 36 89t87 36q53 0 89 -35.5t36 -89.5q0 -51 -36 -87t-89 -36q-51 0 -87 36t-36 87zM743 98q0 53 36 89t87 36q53 0 89 -35.5t36 -89.5q0 -51 -35.5 -87t-89.5 -36q-51 0 -87 36t-36 87zM1360 98q0 53 36 89t87 36q53 0 89 -35.5t36 -89.5q0 -51 -36 -87
t-89 -36q-51 0 -87 36t-36 87z" />
    <glyph glyph-name="uni202F" unicode="&#x202f;" horiz-adv-x="389" 
 />
    <glyph glyph-name="guilsinglleft" unicode="&#x2039;" horiz-adv-x="571" 
d="M100 489l211 314h142l-211 -314l211 -313h-142z" />
    <glyph glyph-name="guilsinglright" unicode="&#x203a;" horiz-adv-x="571" 
d="M119 176l211 313l-211 314h139l213 -314l-213 -313h-139z" />
    <glyph glyph-name="uni205F" unicode="&#x205f;" horiz-adv-x="487" 
 />
    <glyph glyph-name="Euro" unicode="&#x20ac;" horiz-adv-x="1488" 
d="M86 489v109h137q-6 55 -6 119q0 59 6 114h-137v109h154q27 117 79 212t125.5 163.5t169 105.5t207.5 37q219 0 363.5 -115.5t197.5 -330.5h-131q-47 162 -153.5 248t-276.5 86q-174 0 -289.5 -112t-158.5 -294h571v-109h-590q-6 -55 -6 -114q0 -63 6 -119h590v-109h-571
q43 -182 156.5 -292.5t291.5 -110.5q170 0 276.5 86t153.5 248h131q-53 -215 -197.5 -330t-363.5 -115q-113 0 -208 37t-168.5 104.5t-126 162t-76.5 210.5h-156z" />
    <glyph glyph-name="trademark" unicode="&#x2122;" horiz-adv-x="2148" 
d="M119 1323v111h790v-111h-336v-752h-120v752h-334zM1116 571v863h178l258 -625l258 625h179v-863h-125v699l-256 -617h-115l-258 617v-699h-119z" />
    <glyph glyph-name="uni25FC" unicode="&#x25fc;" horiz-adv-x="901" 
d="M0 0v901h901v-901h-901z" />
    <glyph glyph-name="uniFB01" unicode="&#xfb01;" horiz-adv-x="976" 
d="M41 799v104h156v324q0 63 18 104t48 65.5t66 35t72 10.5q25 0 47.5 -1t38.5 -3q20 -2 37 -4v-109q-16 2 -32 6q-14 2 -30 3t-28 1q-59 0 -85.5 -27.5t-26.5 -95.5v-309h514v-903h-125v799h-389v-799h-125v799h-156zM655 1231q0 45 32 76.5t77 31.5t76.5 -31.5t31.5 -76.5
t-31.5 -77t-76.5 -32t-77 32t-32 77z" />
    <glyph glyph-name="uniFB02" unicode="&#xfb02;" horiz-adv-x="980" 
d="M41 799v104h156v324q0 63 18 104t48 65.5t66 35t72 10.5q25 0 47.5 -1t38.5 -3q20 -2 37 -4v-109q-16 2 -32 6q-14 2 -30 3t-28 1q-59 0 -85.5 -27.5t-26.5 -95.5v-309h389v531h125v-1434h-125v799h-389v-799h-125v799h-156z" />
    <glyph glyph-name="uniFB03" unicode="&#xfb03;" horiz-adv-x="1490" 
d="M41 799v104h156v324q0 63 18 104t48 65.5t66 35t72 10.5q25 0 47.5 -1t38.5 -3q20 -2 37 -4v-109q-16 2 -32 6q-14 2 -30 3t-28 1q-59 0 -85.5 -27.5t-26.5 -95.5v-309h389v324q0 63 18.5 104t48 65.5t65.5 35t72 10.5q25 0 47.5 -1t38.5 -3q20 -2 37 -4v-109
q-16 2 -32 6q-14 2 -29.5 3t-28.5 1q-59 0 -85.5 -27.5t-26.5 -95.5v-309h514v-903h-125v799h-389v-799h-125v799h-389v-799h-125v799h-156zM1169 1231q0 45 32 76.5t77 31.5t76.5 -31.5t31.5 -76.5t-31.5 -77t-76.5 -32t-77 32t-32 77z" />
    <glyph glyph-name="uniFB04" unicode="&#xfb04;" horiz-adv-x="1495" 
d="M41 799v104h156v324q0 63 18 104t48 65.5t66 35t72 10.5q25 0 47.5 -1t38.5 -3q20 -2 37 -4v-109q-16 2 -32 6q-14 2 -30 3t-28 1q-59 0 -85.5 -27.5t-26.5 -95.5v-309h389v324q0 63 18.5 104t48 65.5t65.5 35t72 10.5q25 0 47.5 -1t38.5 -3q20 -2 37 -4v-109
q-16 2 -32 6q-14 2 -29.5 3t-28.5 1q-59 0 -85.5 -27.5t-26.5 -95.5v-309h389v531h125v-1434h-125v799h-389v-799h-125v799h-389v-799h-125v799h-156z" />
    </font>
</defs>
</svg>
